<?xml version="1.0" standalone="no"?>
<!DOCTYPE svg PUBLIC "-//W3C//DTD SVG 20010904//EN"
 "http://www.w3.org/TR/2001/REC-SVG-20010904/DTD/svg10.dtd">
<svg version="1.0" xmlns="http://www.w3.org/2000/svg"
 width="1024.000000pt" height="1024.000000pt" viewBox="0 0 1024.000000 1024.000000"
 preserveAspectRatio="xMidYMid meet">

<g transform="translate(0.000000,1024.000000) scale(0.100000,-0.100000)"
fill="#000000" stroke="none">
<path d="M5158 8913 c34 -2 90 -2 125 0 34 2 6 3 -63 3 -69 0 -97 -1 -62 -3z"/>
<path d="M4930 8804 c-19 -2 -82 -9 -140 -15 -599 -62 -1230 -292 -1740 -632
-296 -197 -625 -496 -825 -747 -207 -262 -303 -406 -419 -630 -226 -439 -353
-847 -413 -1330 -26 -217 -24 -627 6 -855 80 -607 263 -1102 593 -1599 461
-694 1147 -1219 1959 -1501 204 -71 658 -177 742 -174 31 1 -122 39 -158 39
-35 0 -225 53 -252 70 -28 17 163 5 207 -14 20 -8 85 -22 145 -31 131 -19 185
-32 185 -45 0 -6 -23 -10 -52 -10 -89 0 -40 -17 83 -29 144 -14 536 -14 689
-1 503 45 988 189 1450 432 133 70 310 175 310 184 0 7 -93 -42 -136 -71 -21
-14 -49 -28 -63 -32 -14 -3 -43 -20 -63 -38 -21 -17 -57 -38 -80 -45 -24 -7
-52 -21 -63 -30 -29 -23 -64 -38 -113 -49 -24 -5 -54 -19 -66 -30 -12 -12 -35
-21 -52 -21 l-29 1 28 24 c15 14 37 25 47 25 10 0 31 11 47 24 36 30 259 136
286 136 12 0 30 9 41 19 32 30 85 66 156 107 84 49 156 102 200 149 19 21 85
75 145 120 61 45 148 121 195 169 47 48 107 108 133 134 27 26 65 69 85 97 54
73 303 349 319 353 20 5 15 -18 -16 -75 -16 -29 -28 -53 -26 -53 9 0 124 167
198 285 272 439 448 946 524 1511 24 186 24 656 0 849 -62 476 -215 942 -450
1368 -193 350 -388 601 -698 902 -588 570 -1326 920 -2194 1041 -113 15 -630
29 -725 18z m570 -44 c19 -7 78 -13 130 -14 91 -2 158 -15 190 -35 38 -25 -34
-29 -150 -9 -54 9 -203 13 -532 13 -251 0 -459 3 -463 7 -14 14 89 34 270 52
89 9 521 -2 555 -14z m-100 -60 c405 -30 747 -103 1110 -237 431 -160 795
-379 1156 -695 178 -156 160 -156 -31 1 -144 118 -283 223 -360 273 -38 25
-109 71 -157 102 -123 79 -489 254 -570 271 -18 4 -42 14 -53 21 -11 8 -25 14
-33 14 -7 0 -34 10 -60 22 -26 11 -69 23 -95 26 -32 3 -44 8 -35 13 16 11 -4
11 -42 0 -22 -7 -20 -8 18 -14 23 -4 42 -12 42 -18 0 -7 -10 -9 -27 -5 -21 5
-24 4 -13 -4 8 -5 23 -10 32 -10 9 0 19 -4 23 -9 8 -14 -67 -5 -123 13 -26 9
-87 22 -135 31 -49 8 -92 17 -96 20 -18 11 -249 46 -396 60 -347 33 -867 6
-1100 -56 -22 -6 -47 -12 -55 -14 -52 -11 -198 -48 -215 -54 -11 -5 -67 -23
-125 -42 -58 -18 -114 -37 -125 -43 -11 -6 -22 -10 -25 -11 -11 -1 -225 -89
-230 -94 -3 -4 -61 -35 -130 -70 -69 -34 -132 -69 -141 -77 -8 -8 -20 -14 -26
-14 -5 0 -18 -9 -28 -20 -10 -11 -23 -20 -29 -20 -6 0 -38 -18 -71 -39 -32
-21 -65 -37 -72 -34 -8 3 -13 1 -11 -4 4 -11 -53 -61 -107 -93 -107 -65 -225
-167 -468 -405 -17 -16 -34 -29 -39 -27 -4 1 -8 -4 -8 -11 0 -21 -37 -60 -45
-47 -3 5 -3 15 1 21 14 23 -20 2 -35 -22 -15 -22 -15 -23 1 -11 11 9 18 10 23
2 3 -5 2 -10 -3 -10 -5 0 -36 -33 -68 -72 -32 -40 -61 -75 -64 -78 -3 -3 -13
-18 -23 -33 -10 -15 -22 -25 -27 -22 -6 3 -7 0 -4 -8 3 -8 -2 -17 -10 -20 -9
-4 -16 -12 -16 -19 -1 -7 -12 -26 -26 -43 -25 -29 -25 -29 -19 -5 4 14 18 36
31 51 13 14 24 29 24 34 0 14 -49 -47 -76 -95 -14 -25 -20 -39 -13 -32 21 20
33 14 14 -8 -10 -11 -24 -20 -30 -20 -14 0 -149 -226 -151 -251 -2 -23 -14
-40 -25 -34 -5 3 -6 -2 -2 -11 4 -11 2 -15 -4 -11 -10 7 -87 -148 -142 -285
-38 -96 -132 -381 -161 -488 -12 -47 -31 -115 -41 -152 -11 -36 -19 -71 -19
-76 0 -6 24 -13 52 -17 29 -3 82 -11 117 -17 57 -10 62 -12 42 -22 -12 -7 -18
-15 -15 -19 4 -4 -11 -7 -34 -7 -50 0 -53 6 -9 19 l32 9 -31 1 c-17 1 -53 8
-80 16 -37 11 -50 12 -56 2 -6 -9 -8 -8 -8 2 0 32 -11 0 -24 -75 -63 -350 -60
-750 8 -1164 38 -228 155 -631 220 -755 9 -16 16 -36 16 -42 0 -7 4 -13 8 -13
13 0 34 -64 22 -68 -5 -2 -10 -8 -10 -13 0 -4 6 -6 13 -4 6 3 18 -5 26 -17 13
-20 12 -22 -1 -11 -12 11 -18 9 -32 -6 -10 -11 -24 -17 -32 -14 -18 7 -18 -2
2 -33 15 -22 18 -23 29 -8 11 16 12 15 19 -1 6 -16 -16 -65 -30 -65 -4 0 1 11
10 25 19 29 21 41 4 28 -20 -15 -43 -9 -40 10 2 9 -1 17 -6 17 -12 0 -38 60
-34 79 2 7 -1 11 -6 7 -9 -5 -76 144 -126 279 -172 469 -248 1040 -202 1523
82 848 445 1629 1037 2232 306 311 630 547 1017 739 557 278 1274 425 1862
381z m-1350 -129 c0 -15 -43 -37 -98 -50 -28 -7 -54 -17 -57 -21 -3 -5 -38
-21 -78 -36 -39 -14 -96 -37 -124 -50 -29 -13 -64 -26 -78 -30 -38 -10 -32 21
8 35 17 7 66 29 107 51 41 21 99 43 129 49 30 6 59 15 65 20 13 10 96 40 114
41 6 0 12 -4 12 -9z m2426 -22 c34 -12 72 -30 85 -40 l24 -19 -40 0 c-43 0
-160 33 -182 52 -41 34 24 38 113 7z m240 -101 c15 -7 29 -19 32 -25 6 -20
-42 -15 -71 7 -14 11 -30 20 -35 20 -6 0 -14 5 -18 12 -9 14 53 5 92 -14z
m-348 -34 c-2 -1 -25 1 -53 4 -45 5 -47 7 -20 12 25 5 81 -7 73 -16z m492 -39
c10 -12 9 -15 -7 -15 -10 0 -28 7 -39 15 -18 14 -18 14 7 15 15 0 32 -7 39
-15z m-3550 -135 c0 -5 -5 -10 -11 -10 -5 0 -7 5 -4 10 3 6 8 10 11 10 2 0 4
-4 4 -10z m2018 -18 c3 -16 -2 -22 -17 -22 -24 0 -35 15 -27 36 9 23 40 13 44
-14z m-208 4 c0 -18 -27 -39 -40 -31 -5 3 -10 15 -10 26 0 14 7 19 25 19 15 0
25 -6 25 -14z m2106 -57 l29 -32 -42 24 c-43 24 -54 39 -30 39 7 0 26 -14 43
-31z m-2336 -15 c0 -17 -6 -24 -19 -24 -25 0 -34 26 -15 45 20 19 34 11 34
-21z m650 0 c0 -17 -6 -24 -20 -24 -25 0 -36 25 -20 45 16 20 40 7 40 -21z
m-2359 -5 c-25 -21 -41 -24 -41 -9 0 11 53 41 60 33 3 -2 -6 -13 -19 -24z
m1212 -146 c5 -7 27 -13 50 -13 23 0 52 -3 65 -7 23 -6 22 -7 -24 -54 l-47
-48 15 -71 c9 -38 13 -70 10 -70 -3 0 -29 14 -59 30 -29 17 -59 30 -66 30 -7
0 -39 -16 -72 -35 -32 -20 -59 -34 -61 -33 -1 2 4 36 13 76 l15 74 -54 48 -53
48 73 7 73 8 31 68 31 69 26 -57 c14 -32 30 -64 34 -70z m930 42 c79 -20 131
-49 188 -102 166 -155 204 -400 93 -599 -43 -77 -100 -128 -202 -179 -72 -36
-84 -39 -180 -43 -117 -5 -165 5 -260 51 -153 74 -252 236 -252 411 0 55 24
144 57 214 31 67 139 179 198 207 112 53 250 68 358 40z m676 -25 c6 -22 23
-47 36 -56 32 -21 31 -30 -4 -42 -27 -9 -30 -8 -36 15 -3 14 -9 23 -12 20 -3
-4 0 -20 7 -37 10 -25 10 -36 0 -58 l-12 -27 -18 41 c-13 29 -26 43 -44 48
-33 8 -33 17 3 44 16 12 34 37 41 57 6 19 15 35 19 35 4 0 13 -18 20 -40z
m266 -11 c0 -31 -31 -38 -40 -8 -5 14 -2 25 6 30 21 13 34 5 34 -22z m1235
-34 c11 -13 10 -14 -4 -9 -9 3 -16 10 -16 15 0 13 6 11 20 -6z m-1016 -41 c21
-8 21 -40 0 -48 -21 -8 -34 1 -34 23 0 28 9 34 34 25z m-3704 -73 c0 -16 -42
-57 -82 -81 -21 -12 -38 -19 -38 -16 0 14 51 85 67 95 23 13 53 14 53 2z
m1220 -16 c0 -18 -5 -25 -20 -25 -15 0 -20 7 -20 25 0 18 5 25 20 25 15 0 20
-7 20 -25z m-305 -115 c0 -27 -22 -39 -31 -16 -8 22 3 49 19 43 6 -2 12 -14
12 -27z m2528 8 c7 -21 -4 -38 -24 -38 -14 0 -19 7 -19 25 0 18 5 25 19 25 11
0 21 -6 24 -12z m227 -27 c0 -19 -23 -35 -34 -24 -14 15 -5 43 14 43 13 0 20
-7 20 -19z m359 -9 c-120 -77 -183 -215 -158 -349 23 -126 98 -209 226 -252
76 -25 141 -26 210 -2 70 24 112 55 158 115 l38 51 -7 -35 c-10 -55 -53 -134
-102 -189 -173 -192 -515 -154 -643 72 -77 135 -79 263 -9 402 55 108 204 211
307 214 21 1 18 -3 -20 -27z m-2204 -12 c0 -22 -39 -19 -43 3 -3 15 1 18 20
15 12 -2 23 -10 23 -18z m1399 11 c10 -16 -5 -41 -24 -41 -20 0 -30 17 -22 38
5 14 38 16 46 3z m-2510 -100 l38 -89 91 -7 92 -7 -35 -31 c-19 -18 -52 -45
-72 -62 l-37 -30 18 -67 c10 -36 21 -80 24 -97 l6 -31 -37 24 c-20 13 -60 35
-88 49 l-50 25 -78 -44 c-43 -25 -81 -43 -83 -40 -2 2 5 41 17 87 11 45 18 90
15 98 -4 9 -33 38 -66 64 -32 27 -59 53 -59 58 0 5 41 9 91 9 l90 0 24 53 c13
28 30 69 39 90 8 20 17 37 19 37 2 0 21 -40 41 -89z m336 75 c0 -16 -18 -31
-27 -22 -8 8 5 36 17 36 5 0 10 -6 10 -14z m598 -93 c4 -27 -25 -38 -37 -14
-7 12 -6 22 2 30 16 16 31 9 35 -16z m-274 -101 c25 -87 26 -112 7 -112 -14 0
-65 196 -57 217 10 26 19 8 50 -105z m2894 86 c-5 -34 -38 -37 -38 -4 0 20 5
26 21 26 15 0 20 -5 17 -22z m-3137 -105 c32 -103 38 -132 27 -139 -5 -4 -14
-2 -18 2 -13 13 -61 185 -54 195 12 21 24 5 45 -58z m2333 42 c11 -16 26 -25
42 -25 26 0 26 0 9 -26 -10 -16 -14 -35 -11 -50 7 -27 6 -28 -28 -13 -19 9
-29 8 -47 -5 -34 -23 -42 -20 -35 14 4 23 1 33 -14 42 -28 18 -25 38 5 38 17
0 29 8 37 25 6 14 14 25 18 25 4 0 15 -11 24 -25z m-374 -10 c0 -9 -7 -18 -16
-22 -18 -7 -39 11 -30 26 11 17 46 13 46 -4z m-3519 -53 c-5 -10 -17 -24 -25
-32 -23 -18 -22 7 1 32 21 23 37 23 24 0z m2257 -109 c20 -103 21 -123 2 -123
-12 0 -20 26 -36 115 -17 99 -17 115 0 115 9 0 20 -34 34 -107z m-194 -41 c30
-114 32 -132 11 -132 -8 0 -15 2 -15 4 0 2 -12 48 -26 101 -24 92 -26 125 -6
125 5 0 21 -44 36 -98z m1373 31 c-7 -55 -25 -95 -38 -87 -19 11 11 124 34
124 5 0 7 -16 4 -37z m197 -32 c-8 -25 -19 -63 -26 -83 -6 -21 -17 -38 -25
-38 -7 0 -13 3 -13 8 0 16 38 140 50 162 20 38 30 3 14 -49z m-3724 48 c0 -7
-19 -33 -42 -59 -41 -44 -59 -69 -103 -149 -68 -120 -79 -137 -178 -276 -27
-37 -62 -99 -79 -136 -17 -38 -34 -69 -39 -69 -5 0 -13 -19 -19 -42 -13 -45
-37 -88 -51 -88 -4 0 -2 17 5 38 15 40 137 284 153 304 6 7 18 37 27 65 19 56
90 161 137 200 15 13 33 39 39 58 6 19 17 38 24 42 7 5 28 28 47 53 48 64 79
86 79 59z m4874 -8 c8 -12 -21 -34 -34 -26 -17 11 -11 35 9 35 11 0 22 -4 25
-9z m-4064 -66 c15 -18 5 -35 -21 -35 -12 0 -19 7 -19 18 0 33 20 42 40 17z
m1170 -81 c23 -75 25 -107 8 -102 -16 6 -62 144 -54 164 10 26 25 6 46 -62z
m1931 61 c-1 -32 -47 -145 -58 -145 -7 0 -13 6 -13 13 0 15 35 121 45 138 8
12 27 8 26 -6z m-2116 -98 c26 -63 35 -114 21 -119 -10 -3 -66 137 -66 165 0
34 22 12 45 -46z m2308 47 c6 -7 -39 -132 -55 -151 -13 -16 -28 -17 -28 -3 0
17 62 160 70 160 4 0 9 -3 13 -6z m-2933 -79 c0 -18 -5 -25 -20 -25 -20 0 -28
28 -13 43 15 16 33 6 33 -18z m1420 -15 c63 -45 182 -98 235 -105 30 -3 57
-10 60 -15 3 -5 -16 -7 -45 -3 -53 6 -72 -10 -22 -20 15 -3 47 -10 72 -16 25
-6 77 -10 115 -11 88 0 125 -19 45 -22 -96 -3 -123 -7 -195 -24 -38 -9 -97
-22 -130 -29 -74 -16 -39 -18 80 -5 68 7 127 6 246 -6 142 -14 160 -14 185 0
26 14 27 15 7 16 -12 0 -25 5 -28 10 -4 6 13 10 44 10 28 0 51 4 51 9 0 9 -82
21 -154 21 -27 0 -46 3 -42 7 4 4 55 7 114 8 61 0 109 4 112 10 6 13 -109 34
-192 35 -39 0 -70 5 -74 12 -6 10 101 8 256 -5 16 -1 25 3 25 13 0 10 -20 17
-72 25 -101 15 -105 29 -6 21 75 -6 82 -5 88 13 3 11 3 31 -1 45 -7 31 -11 31
96 7 358 -80 751 -273 1060 -520 104 -83 340 -315 340 -334 0 -7 9 -18 20 -25
12 -7 18 -17 15 -21 -2 -5 2 -12 11 -15 8 -3 13 -9 11 -14 -3 -4 1 -16 9 -27
8 -10 14 -15 14 -10 0 5 8 -2 17 -15 10 -14 18 -28 18 -31 0 -3 8 -13 18 -23
9 -10 17 -27 17 -39 0 -15 3 -18 8 -9 6 9 12 5 22 -15 7 -15 12 -34 11 -42 -1
-8 2 -10 10 -5 8 4 10 3 5 -5 -4 -6 -1 -23 8 -36 9 -13 16 -30 16 -37 0 -7
-19 21 -43 63 -65 115 -231 334 -293 389 l-28 25 25 -35 c14 -19 53 -74 88
-122 37 -52 60 -92 55 -99 -4 -8 -3 -9 5 -5 6 4 14 0 18 -11 3 -10 15 -29 25
-42 10 -13 18 -29 18 -35 0 -6 -5 -4 -11 4 -9 13 -10 13 -6 0 2 -8 10 -15 17
-15 18 0 80 -104 73 -122 -4 -11 -16 -4 -44 26 -22 23 -39 37 -39 33 0 -5 3
-12 7 -15 3 -4 8 -22 9 -39 l4 -33 -19 23 c-22 25 -46 30 -37 7 18 -45 16 -47
-19 -12 -20 20 -41 37 -46 37 -5 0 -9 8 -9 17 0 9 -3 14 -6 10 -8 -8 14 -74
27 -81 5 -2 4 -3 -3 -2 -17 3 -59 66 -99 145 -17 35 -40 72 -51 83 -10 10 -36
52 -57 92 -21 41 -59 101 -85 135 -27 34 -46 65 -43 67 7 7 72 -81 122 -164
21 -35 43 -66 48 -69 11 -7 4 7 -23 47 -10 14 -30 48 -45 75 -28 50 -95 129
-103 120 -3 -2 -27 16 -55 41 -150 135 -352 204 -593 204 l-114 0 -78 44
c-136 78 -201 91 -427 85 -23 -1 -78 13 -130 32 -88 33 -94 33 -245 34 -175 0
-236 -12 -355 -70 -38 -19 -104 -41 -145 -50 -96 -21 -190 -54 -214 -77 -11
-10 -31 -18 -45 -17 -20 0 -22 2 -9 7 10 4 -51 7 -135 6 -112 0 -169 -5 -217
-18 -93 -25 -216 -87 -283 -143 -111 -93 -216 -256 -237 -372 -19 -100 -30
-129 -63 -158 -33 -30 -88 -114 -126 -195 -20 -42 -53 -69 -68 -54 -3 3 -13 1
-22 -3 -9 -5 -52 -11 -96 -15 -44 -3 -95 -9 -112 -12 -24 -5 -33 -3 -33 7 0
10 -3 10 -8 3 -7 -11 -82 -29 -82 -20 0 13 74 165 107 220 105 176 199 308
302 426 327 373 771 649 1256 783 237 65 253 67 295 37z m754 -30 c10 -10 -75
-1 -86 9 -4 4 12 5 35 3 23 -2 46 -8 51 -12z m-2686 -13 c4 -20 -25 -34 -40
-19 -15 15 -1 44 19 40 10 -2 19 -11 21 -21z m-748 -89 c-13 -13 -19 -16 -15
-8 14 25 28 41 32 36 3 -3 -5 -15 -17 -28z m4348 9 c4 -20 -25 -34 -40 -19
-15 15 -1 44 19 40 10 -2 19 -11 21 -21z m1127 -12 c0 -13 -8 -21 -22 -23 -17
-3 -23 2 -23 16 0 10 3 22 7 26 13 13 38 1 38 -19z m-4806 -32 c36 -33 51 -54
51 -72 0 -23 -4 -21 -60 34 -55 54 -73 85 -51 85 4 0 31 -21 60 -47z m2424 40
c-13 -2 -33 -2 -45 0 -13 2 -3 4 22 4 25 0 35 -2 23 -4z m-1682 -134 c44 -70
50 -89 28 -89 -12 0 -99 136 -99 156 0 30 26 7 71 -67z m3709 55 c0 -20 -140
-175 -152 -168 -10 6 2 29 38 69 14 17 42 49 61 73 37 44 53 52 53 26z m-4235
-45 c4 -13 16 -19 36 -19 32 0 37 -11 13 -31 -11 -9 -15 -25 -12 -52 3 -35 2
-38 -17 -32 -43 14 -73 16 -79 6 -4 -6 -14 -11 -21 -11 -12 0 -12 6 -4 27 8
22 6 32 -11 54 -26 36 -26 35 10 43 19 3 34 15 42 31 8 19 14 22 24 14 7 -6
16 -19 19 -30z m2333 24 c-10 -2 -26 -2 -35 0 -10 3 -2 5 17 5 19 0 27 -2 18
-5z m-2743 -38 c0 -13 -8 -21 -22 -23 -19 -3 -23 1 -23 23 0 22 4 26 23 23 14
-2 22 -10 22 -23z m4932 9 c3 -10 -1 -16 -132 -159 -44 -49 -85 -95 -92 -104
-9 -12 -14 -13 -24 -4 -14 14 -5 27 129 175 91 100 111 115 119 92z m-827 -24
c0 -13 -7 -20 -18 -20 -24 0 -32 8 -25 26 8 22 43 17 43 -6z m1804 -56 c11
-28 6 -39 -9 -20 -8 11 -15 23 -15 28 0 14 18 9 24 -8z m-3256 -30 c89 -18
169 -50 181 -72 7 -13 14 -12 53 6 25 12 64 22 88 22 93 0 267 -60 332 -116
31 -25 33 -26 142 -19 330 21 611 -131 745 -401 28 -58 66 -182 58 -190 -11
-12 -51 42 -102 136 -31 58 -64 112 -72 120 -9 8 -13 11 -11 5 44 -83 98 -230
99 -267 0 -16 20 -38 64 -72 36 -28 63 -52 61 -54 -2 -2 -23 6 -47 17 -23 12
-45 19 -47 16 -10 -9 20 -34 49 -40 69 -15 27 -21 -124 -17 -89 2 -164 6 -165
8 -2 1 5 27 17 58 31 83 37 171 16 242 -49 172 -178 289 -349 315 -146 23
-304 -57 -366 -185 -54 -112 -50 -227 12 -355 l34 -71 -60 0 c-185 1 -1204
-22 -1278 -29 -49 -4 -88 -3 -88 1 0 4 11 41 25 82 105 313 -143 609 -445 532
-95 -24 -143 -51 -208 -115 -46 -45 -64 -72 -90 -138 -44 -112 -44 -194 -1
-301 17 -43 40 -87 51 -99 l21 -23 -34 0 c-31 0 -38 5 -57 39 -36 63 -53 121
-62 201 l-7 75 -2 -66 c-1 -71 22 -154 60 -216 12 -19 20 -35 18 -37 -6 -4
-403 -36 -406 -32 -2 2 18 11 44 21 51 19 96 45 90 51 -2 3 -25 -5 -51 -17
-26 -11 -52 -19 -58 -17 -9 3 29 28 136 85 54 29 43 29 -40 -3 -60 -22 -66
-23 -52 -7 10 10 45 34 78 53 75 42 64 51 -16 13 -83 -38 -83 -38 -44 -8 19
15 49 33 65 41 23 10 25 13 10 14 -14 0 -8 7 23 26 23 14 42 32 42 40 0 11 -9
9 -37 -9 -70 -43 -70 -43 -53 -22 8 10 20 49 27 86 37 224 234 429 469 489
119 31 311 23 385 -16 29 -14 29 -14 29 15 0 26 7 33 53 55 28 14 93 35 142
46 50 11 122 35 160 52 138 64 335 85 493 52z m1637 -29 c0 -13 -8 -21 -22
-23 -17 -3 -23 2 -23 16 0 10 3 22 7 26 13 13 38 1 38 -19z m857 -5 c65 -17
68 -18 62 -33 -4 -12 -15 -12 -66 -2 -33 7 -64 17 -70 23 -13 13 0 35 17 28 8
-3 33 -10 57 -16z m-5234 -44 c5 -24 -10 -38 -31 -30 -17 6 -23 35 -10 48 12
12 38 1 41 -18z m4548 -91 c-27 -34 -56 -47 -56 -23 0 7 14 27 32 45 43 44 61
27 24 -22z m-3766 -10 c0 -28 -21 -33 -40 -10 -15 18 -5 35 21 35 14 0 19 -7
19 -25z m-235 7 c28 -19 115 -131 115 -146 0 -10 -3 -16 -8 -14 -20 8 -142
150 -137 158 7 12 16 12 30 2z m4590 -115 l31 -72 71 -5 c39 -3 74 -8 78 -11
3 -4 -20 -30 -53 -59 l-59 -52 18 -76 c10 -42 17 -77 15 -79 -2 -2 -33 15 -69
37 -37 22 -72 40 -79 40 -8 0 -44 -18 -81 -40 -51 -30 -67 -35 -64 -22 3 9 13
48 23 85 l17 68 -56 54 -57 55 38 1 c20 1 42 2 47 4 6 1 25 3 43 3 30 2 34 7
63 72 18 39 34 70 38 70 3 0 20 -33 36 -73z m275 38 c0 -18 -5 -25 -19 -25
-26 0 -36 17 -21 35 19 23 40 18 40 -10z m-5400 -75 c14 -30 29 -58 35 -62 5
-4 40 -8 78 -8 37 0 67 -4 67 -9 0 -5 -26 -32 -57 -60 l-57 -50 15 -75 c9 -42
15 -76 14 -76 -2 0 -33 18 -69 39 l-67 39 -71 -39 c-39 -22 -73 -37 -75 -35
-2 2 6 37 18 79 l21 74 -47 44 c-26 24 -54 48 -62 53 -27 15 7 26 82 26 l71 0
32 66 c18 37 37 63 41 58 4 -5 18 -34 31 -64z m-874 -39 c-9 -16 -16 -39 -16
-49 0 -21 -35 -70 -44 -62 -3 3 8 31 23 61 15 31 32 69 36 85 6 20 9 24 12 12
2 -9 -3 -30 -11 -47z m6780 11 c-15 -15 -15 -15 -4 10 7 15 15 23 17 17 2 -6
-4 -18 -13 -27z m-2152 -16 c54 -17 137 -67 119 -73 -7 -3 -34 5 -60 17 -72
33 -165 37 -236 10 -31 -12 -70 -32 -85 -45 -30 -25 -88 -132 -84 -154 2 -7
-1 -10 -8 -6 -7 4 -9 -1 -5 -18 5 -18 2 -26 -11 -31 -15 -6 -16 -1 -11 44 23
190 201 310 381 256z m-2023 -21 c24 -8 58 -26 74 -40 l30 -24 -55 20 c-30 11
-86 22 -125 24 -61 4 -78 0 -130 -25 -33 -16 -77 -44 -97 -63 -21 -19 -38 -32
-38 -29 0 3 -9 -3 -19 -12 -22 -20 -51 -96 -51 -133 0 -14 -4 -21 -10 -18 -29
18 3 124 61 196 77 97 241 144 360 104z m3077 -88 c4 -20 -25 -34 -40 -19 -15
15 -1 44 19 40 10 -2 19 -11 21 -21z m690 1 c-2 -13 -10 -23 -18 -23 -8 0 -16
10 -18 23 -3 17 2 22 18 22 16 0 21 -5 18 -22z m-3988 -12 c0 -2 -7 -7 -16
-10 -8 -3 -12 -2 -9 4 6 10 25 14 25 6z m90 -20 c0 -3 -4 -8 -10 -11 -5 -3
-10 -1 -10 4 0 6 5 11 10 11 6 0 10 -2 10 -4z m-1352 -58 c-5 -34 -38 -37 -38
-4 0 20 5 26 21 26 15 0 20 -5 17 -22z m-1207 -25 c-10 -17 -10 -16 -11 3 0
23 13 41 18 25 2 -6 -1 -18 -7 -28z m2359 18 c0 -5 -9 -19 -20 -32 l-21 -24
16 33 c15 31 25 41 25 23z m2115 -11 c3 -5 1 -10 -4 -10 -6 0 -11 5 -11 10 0
6 2 10 4 10 3 0 8 -4 11 -10z m92 -12 c-3 -8 -6 -5 -6 6 -1 11 2 17 5 13 3 -3
4 -12 1 -19z m-2127 -7 c0 -5 -7 -11 -15 -15 -9 -3 -15 0 -15 9 0 8 7 15 15
15 8 0 15 -4 15 -9z m4527 -75 c-30 -45 -215 -118 -225 -88 -2 7 -8 9 -14 6
-6 -4 -9 -1 -6 7 2 7 49 30 102 51 106 40 136 60 137 92 1 14 4 10 10 -12 8
-26 7 -39 -4 -56z m-5590 53 c16 -16 5 -39 -18 -39 -12 0 -19 7 -19 18 0 31
17 41 37 21z m-747 -19 c0 -11 -7 -20 -15 -20 -8 0 -15 9 -15 20 0 11 7 20 15
20 8 0 15 -9 15 -20z m3837 -2 c-3 -8 -6 -5 -6 6 -1 11 2 17 5 13 3 -3 4 -12
1 -19z m53 0 c0 -5 5 -6 10 -3 6 3 10 4 10 1 0 -15 -20 -13 -36 5 -16 18 -16
19 -1 13 9 -3 17 -10 17 -16z m1904 -12 c14 -27 26 -35 58 -40 l41 -7 -28 -29
c-22 -23 -27 -36 -23 -64 2 -20 3 -36 1 -36 -1 0 -18 7 -37 17 -32 15 -37 15
-60 0 -40 -27 -48 -22 -41 26 6 35 3 46 -14 61 -29 26 -26 34 12 38 25 2 35
10 47 35 8 18 17 33 20 33 3 0 14 -15 24 -34z m-3937 2 c-3 -8 -6 -5 -6 6 -1
11 2 17 5 13 3 -3 4 -12 1 -19z m63 18 c0 -3 -4 -8 -10 -11 -5 -3 -10 -1 -10
4 0 6 5 11 10 11 6 0 10 -2 10 -4z m-2262 -59 c-35 -9 -81 14 -72 37 4 12 14
10 54 -7 l48 -22 -30 -8z m2136 38 c19 -14 19 -15 -7 -13 -15 1 -27 8 -27 15
0 17 10 16 34 -2z m131 -5 c-3 -5 -12 -10 -18 -10 -7 0 -6 4 3 10 19 12 23 12
15 0z m-42 -40 c-3 -11 -7 -20 -8 -20 -1 0 -5 9 -8 20 -3 12 0 20 8 20 8 0 11
-8 8 -20z m27 -1 c-7 -11 -14 -19 -16 -16 -7 7 7 37 17 37 6 0 5 -9 -1 -21z
m2870 -77 c0 -7 9 -31 21 -53 11 -23 16 -38 10 -35 -19 12 -72 96 -66 105 3 5
1 11 -3 13 -5 1 -12 18 -15 37 l-7 34 30 -44 c16 -24 30 -50 30 -57z m-2931
69 c-8 -3 -15 -12 -17 -20 -3 -12 0 -12 12 -1 9 7 16 8 16 2 0 -5 -6 -14 -13
-20 -19 -16 -42 23 -25 42 7 7 19 11 27 8 13 -5 13 -6 0 -11z m-102 3 c-3 -3
-12 -4 -19 -1 -8 3 -5 6 6 6 11 1 17 -2 13 -5z m2940 -122 c40 -35 36 -33 -63
32 -24 15 -44 37 -46 50 -4 21 -1 20 33 -13 21 -20 55 -51 76 -69z m-4569 54
c-4 -25 -36 -34 -44 -12 -10 26 3 45 26 39 14 -4 20 -12 18 -27z m1672 24 c0
-5 -5 -10 -11 -10 -5 0 -7 5 -4 10 3 6 8 10 11 10 2 0 4 -4 4 -10z m-2483 -93
c-5 -68 -31 -147 -49 -147 -16 0 -8 97 13 158 29 85 43 80 36 -11z m7068 -43
c-105 -54 -245 -76 -245 -38 0 8 5 14 10 14 6 0 10 -4 10 -10 0 -5 10 -10 23
-9 20 0 20 1 3 8 -29 11 -10 19 111 46 154 33 168 31 88 -11z m-1644 -31 c13
-16 12 -17 -3 -4 -10 7 -18 15 -18 17 0 8 8 3 21 -13z m-4571 -22 c0 -22 -23
-34 -38 -19 -15 15 -3 38 19 38 12 0 19 -7 19 -19z m189 -94 c107 -53 90 -79
-19 -30 -42 18 -60 32 -60 45 0 23 3 23 79 -15z m-1093 -44 c-3 -27 -11 -95
-16 -153 -5 -58 -16 -136 -25 -175 -8 -38 -18 -98 -21 -132 -9 -85 -24 -69
-23 25 1 170 29 403 54 453 24 45 39 37 31 -18z m761 15 c46 -18 83 -39 83
-45 0 -18 -17 -16 -100 12 -77 26 -103 42 -94 56 8 14 23 11 111 -23z m6436
15 c-7 -2 -19 -2 -25 0 -7 3 -2 5 12 5 14 0 19 -2 13 -5z m-73 -20 c-19 -8
-42 -21 -50 -28 -8 -7 -34 -15 -58 -17 -35 -3 -40 -1 -27 8 13 10 11 12 -17
17 -18 2 -41 0 -50 -5 -12 -5 -18 -5 -18 2 0 5 1 10 3 11 19 6 182 27 212 27
l40 0 -35 -15z m-2317 -20 c109 -3 197 -10 197 -15 0 -24 -121 -300 -340 -773
-51 -110 -103 -224 -116 -253 l-24 -53 207 3 c199 3 209 4 241 26 17 13 32 19
32 13 0 -5 -4 -13 -10 -16 -6 -4 -10 -58 -10 -131 l0 -124 -405 0 c-223 0
-405 2 -405 5 0 3 6 16 14 28 8 12 32 65 54 117 22 52 126 282 231 510 105
228 191 418 191 421 0 10 -268 10 -318 0 -24 -5 -57 -18 -73 -30 l-29 -22 -1
98 c0 54 -4 122 -8 151 l-7 52 191 0 c106 0 280 -3 388 -7z m642 -18 c292 -17
425 -27 425 -31 0 -2 -35 -81 -80 -178 -132 -290 -321 -709 -351 -781 l-38
-90 197 -3 c189 -2 198 -2 242 21 l45 23 1 -55 c1 -31 -1 -42 -3 -26 -3 17 -9
34 -14 40 -5 5 -9 -41 -9 -119 l0 -129 -91 6 c-50 4 -234 10 -410 14 -290 6
-318 8 -305 22 7 9 48 97 91 196 43 99 144 322 223 495 79 173 146 324 149
336 4 20 0 21 -88 27 -165 12 -211 9 -262 -17 l-47 -23 0 121 c0 66 -3 131 -6
144 -8 27 -13 27 331 7z m-2244 -42 c-14 -49 -15 -1231 -1 -1253 8 -13 -9 -16
-123 -20 -73 -3 -133 -5 -133 -5 -1 0 2 23 6 50 12 70 12 1198 1 1228 l-10 25
82 6 c98 8 181 12 185 9 2 0 -1 -18 -7 -40z m669 27 c0 -11 25 -132 55 -268
48 -219 113 -526 176 -827 12 -55 27 -120 35 -144 8 -25 13 -45 11 -45 -15 -6
-277 8 -267 14 10 6 11 21 4 66 -5 33 -11 58 -14 58 -3 -1 -80 -5 -172 -9
l-167 -7 -7 -37 c-3 -20 -8 -44 -11 -53 -3 -12 2 -18 14 -19 45 -4 -92 -17
-179 -18 l-97 -1 13 33 c13 31 32 112 115 497 22 102 65 298 96 435 41 179 55
263 52 298 l-4 47 173 0 c168 0 174 -1 174 -20z m-1104 -21 c54 -14 98 -61
115 -121 16 -62 6 -506 -13 -575 -34 -121 -103 -174 -296 -225 l-122 -33 0
-158 c0 -87 4 -166 10 -176 8 -17 0 -19 -118 -24 -70 -3 -127 -4 -127 -4 0 1
2 272 5 602 3 330 2 616 -2 635 -8 42 -3 46 65 49 29 1 133 11 232 21 99 9
186 18 193 19 7 0 33 -4 58 -10z m3678 -37 l110 -7 8 -30 c10 -38 150 -667
213 -960 26 -121 54 -237 61 -259 8 -21 14 -39 14 -40 0 -1 -30 1 -67 5 -38 5
-102 8 -143 9 -57 0 -71 3 -57 11 15 9 17 19 12 57 -12 89 4 82 -184 82 l-168
0 -11 -51 c-15 -65 -15 -67 6 -73 9 -3 -1 -3 -23 -1 -22 3 -91 5 -154 5 -89 0
-111 3 -103 13 14 17 55 158 92 322 17 77 52 228 76 335 101 444 116 516 111
556 l-4 40 51 -3 c28 -2 100 -7 160 -11z m-5004 -80 c0 -33 271 -1106 290
-1150 11 -25 20 -46 20 -47 0 -1 -53 -5 -117 -9 -65 -4 -129 -10 -143 -13 -22
-6 -23 -4 -12 10 20 23 -2 127 -26 127 -9 -1 -84 -11 -167 -23 l-150 -22 -9
-50 c-6 -27 -14 -53 -19 -56 -5 -4 -46 -10 -91 -13 -44 -4 -96 -10 -115 -13
-31 -5 -32 -4 -22 14 14 28 25 77 77 363 24 135 70 373 100 530 31 157 54 297
51 313 -2 15 -1 27 2 28 50 6 266 27 294 28 29 1 37 -3 37 -17z m5535 -13 c-3
-12 -1 -18 3 -15 4 4 7 13 7 19 0 7 12 13 26 15 23 3 26 0 22 -22 -3 -16 -12
-26 -23 -26 -10 0 -32 -3 -49 -6 -29 -6 -31 -5 -31 25 0 26 4 31 24 31 20 0
24 -4 21 -21z m163 -2 c3 -15 -3 -18 -42 -16 -43 3 -67 19 -28 19 15 0 15 2 2
10 -11 8 -5 10 25 8 29 -2 41 -8 43 -21z m-6496 -537 c-2 -280 1 -510 5 -510
5 0 48 20 97 44 55 28 85 39 82 29 -3 -8 -6 -70 -6 -138 l0 -124 -32 -5 c-60
-10 -323 -57 -343 -62 -20 -5 -20 0 -20 603 0 334 -4 615 -8 624 -7 13 10 17
110 31 65 8 118 16 118 17 0 0 -1 -228 -3 -509z m5157 401 c-23 -50 -44 -90
-45 -88 -2 2 15 45 38 95 23 50 43 90 45 88 2 -2 -15 -45 -38 -95z m1351 -51
l0 -30 -65 0 c-37 0 -65 4 -65 10 0 6 10 10 23 11 13 0 16 2 7 6 -8 2 -25 9
-37 15 -12 6 -31 8 -42 5 -12 -3 -21 -1 -21 4 0 5 45 9 100 9 l100 0 0 -30z
m18 -156 c12 -4 22 -12 22 -20 0 -15 -30 -34 -55 -34 -19 0 -47 25 -38 34 6 5
-103 11 -134 7 -7 -1 -13 3 -13 9 0 11 178 14 218 4z m-2360 -44 c-5 -17 -15
-33 -21 -37 -5 -3 -7 -2 -4 4 4 6 11 22 16 37 14 36 22 33 9 -4z m863 -23
c-10 -9 -11 -8 -5 6 3 10 9 15 12 12 3 -3 0 -11 -7 -18z m-5744 -49 c-3 -7 -5
-2 -5 12 0 14 2 19 5 13 2 -7 2 -19 0 -25z m12 -123 c1 -27 8 -104 16 -171 8
-71 11 -133 6 -150 -8 -28 -9 -28 -24 24 -19 61 -34 323 -22 368 l8 29 7 -25
c5 -14 9 -47 9 -75z m5672 38 c-12 -20 -14 -14 -5 12 4 9 9 14 11 11 3 -2 0
-13 -6 -23z m1492 21 c74 -7 76 -8 65 -28 -6 -12 -9 -23 -7 -26 8 -9 -52 -11
-64 -2 -7 5 -36 10 -66 11 -64 3 -71 6 -71 32 0 22 17 23 143 13z m-2381 -56
c-8 -8 -9 -4 -5 13 4 13 8 18 11 10 2 -7 -1 -18 -6 -23z m2585 -20 c-3 -8 -6
-5 -6 6 -1 11 2 17 5 13 3 -3 4 -12 1 -19z m-2606 -21 c-10 -9 -11 -8 -5 6 3
10 9 15 12 12 3 -3 0 -11 -7 -18z m2596 -99 c-3 -7 -5 -2 -5 12 0 14 2 19 5
13 2 -7 2 -19 0 -25z m-262 11 c14 -6 5 -7 -30 -4 -43 4 -46 3 -20 -5 51 -17
155 -24 155 -11 0 26 17 8 18 -19 1 -35 0 -35 -110 -18 -59 9 -78 15 -79 27
-1 9 -5 5 -9 -9 -7 -22 -8 -21 -9 13 -1 35 0 37 32 36 17 0 41 -5 52 -10z
m-2454 -172 c-10 -9 -11 -8 -5 6 3 10 9 15 12 12 3 -3 0 -11 -7 -18z m2523
-28 c25 -7 35 -14 27 -19 -16 -10 -16 -21 1 -31 20 -13 -32 -11 -71 2 -41 14
-42 52 -1 58 3 1 23 -4 44 -10z m155 -75 c-7 -43 -14 -73 -17 -66 -4 14 18
155 24 149 2 -2 -1 -40 -7 -83z m-2252 -76 c-2 -13 -4 -3 -4 22 0 25 2 35 4
23 2 -13 2 -33 0 -45z m2049 -24 c36 -10 60 -20 54 -24 -6 -4 -11 -10 -11 -14
3 -20 -74 2 -97 29 -26 30 -28 29 54 9z m181 -26 c-3 -7 -5 -2 -5 12 0 14 2
19 5 13 2 -7 2 -19 0 -25z m-10 -50 c-3 -7 -5 -2 -5 12 0 14 2 19 5 13 2 -7 2
-19 0 -25z m-7199 -88 c3 -37 0 -60 -6 -60 -15 0 -22 26 -22 88 0 77 22 55 28
-28z m7185 25 c-3 -9 -8 -14 -10 -11 -3 3 -2 9 2 15 9 16 15 13 8 -4z m-3613
-44 c0 -12 -36 -58 -84 -108 l-40 -43 63 0 c59 0 62 -1 59 -22 -3 -22 -8 -23
-97 -26 -52 -1 -98 1 -103 6 -5 5 16 38 48 78 l57 69 -47 3 c-41 3 -46 6 -46
28 0 24 1 24 95 24 52 0 95 -4 95 -9z m412 -86 c21 -49 37 -98 38 -107 0 -26
-46 -24 -53 2 -4 17 -14 20 -56 20 -39 0 -51 -4 -51 -15 0 -10 -10 -15 -30
-15 -16 0 -30 4 -30 9 0 4 20 52 45 105 43 91 48 97 73 94 24 -3 31 -14 64
-93z m403 70 c31 -30 32 -64 4 -99 -20 -25 -20 -28 -5 -51 22 -33 20 -37 -11
-33 -17 2 -32 12 -40 27 -25 51 -63 51 -63 0 0 -24 -4 -29 -25 -29 l-25 0 0
105 0 105 70 0 c62 0 74 -3 95 -25z m258 12 c-2 -4 -3 -52 -3 -107 l0 -100
-25 0 -25 0 0 103 c0 57 3 107 6 110 8 8 50 2 47 -6z m2517 -34 c-11 -17 -11
-17 -6 0 3 10 7 26 7 35 1 15 2 15 6 0 2 -10 -1 -25 -7 -35z m-4034 9 c-8 -16
-36 -52 -62 -81 l-48 -54 62 5 c59 4 62 3 62 -19 0 -21 -4 -23 -54 -23 -29 0
-74 -3 -100 -6 -60 -9 -59 1 2 80 73 92 73 89 13 81 -50 -7 -51 -6 -51 19 l0
26 95 0 96 0 -15 -28z m1867 -29 c14 -32 35 -82 46 -110 l21 -53 -29 0 c-20 0
-30 6 -34 20 -4 17 -14 20 -56 20 -39 0 -51 -4 -51 -15 0 -10 -10 -15 -31 -15
-36 0 -36 4 23 127 33 68 44 83 62 83 19 0 29 -12 49 -57z m-2263 -58 l0 -105
-25 0 -25 0 0 105 0 105 25 0 25 0 0 -105z m-268 68 c11 -10 18 -30 18 -54 0
-48 -36 -79 -91 -79 -38 0 -39 -1 -39 -35 0 -31 -3 -35 -25 -35 l-25 0 0 104
c0 118 -4 113 89 115 38 1 60 -4 73 -16z m3828 -58 c0 -2 -18 -32 -40 -66 -22
-34 -40 -70 -40 -80 0 -24 30 -39 79 -39 36 0 41 3 41 23 0 46 91 147 132 147
17 0 18 -2 3 -27 -8 -16 -31 -50 -50 -77 -53 -73 -50 -78 53 -100 118 -26 132
-32 132 -56 0 -38 -41 -46 -132 -27 -45 9 -83 16 -85 14 -7 -8 27 -89 55 -130
45 -66 45 -67 23 -67 -45 0 -140 129 -141 192 0 24 -4 27 -51 33 -27 4 -53 5
-55 2 -3 -3 9 -41 27 -86 18 -45 29 -84 26 -88 -12 -11 -56 27 -80 69 -30 52
-41 96 -29 111 17 22 22 88 8 93 -30 11 16 113 67 149 20 14 57 21 57 10z
m847 -17 c-3 -8 -6 -5 -6 6 -1 11 2 17 5 13 3 -3 4 -12 1 -19z m-1442 -23
c280 -25 281 -25 256 -63 -7 -11 -32 -11 -147 2 -135 15 -385 36 -430 36 -23
0 -39 24 -28 42 7 11 45 9 349 -17z m-4610 -50 c24 -14 57 -41 73 -61 l29 -35
47 12 c36 9 46 16 46 32 0 19 1 19 18 4 23 -21 44 -21 109 -2 45 13 50 18 46
38 l-5 22 19 -21 19 -22 224 30 c231 30 258 29 234 -10 -8 -12 -36 -20 -100
-29 -99 -14 -327 -54 -332 -58 -2 -2 6 -25 17 -51 12 -26 20 -49 18 -51 -2 -2
-18 19 -35 47 -29 47 -33 49 -64 43 -18 -3 -47 -11 -65 -17 l-31 -11 15 -40
c28 -76 25 -80 -13 -22 -36 53 -41 57 -69 51 -63 -14 -72 -21 -78 -63 -3 -22
-15 -56 -27 -76 -24 -39 -87 -92 -97 -81 -3 3 6 30 20 58 15 29 30 68 33 87 7
32 6 34 -17 27 -13 -3 -45 -11 -70 -17 -42 -9 -47 -14 -58 -49 -12 -42 -94
-140 -117 -140 -20 0 -18 5 21 76 42 75 43 86 8 82 -26 -3 -28 0 -31 39 -2 28
-9 43 -20 48 -35 13 -141 90 -142 103 0 18 51 15 80 -5 41 -27 90 -76 90 -90
0 -7 7 -13 16 -13 23 0 214 54 214 60 0 3 -38 32 -85 64 -47 33 -85 64 -85 69
0 18 101 -2 145 -28z m5850 -9 c11 -8 26 -12 35 -9 12 4 12 3 1 -5 -8 -6 -9
-12 -3 -16 6 -3 9 -14 7 -24 -2 -12 -11 -17 -35 -15 -39 2 -48 13 -42 53 5 34
10 36 37 16z m160 -66 c-10 -33 -20 -58 -22 -56 -2 2 4 31 14 64 10 33 20 59
22 56 2 -2 -4 -31 -14 -64z m170 -60 c-4 -28 -17 -72 -30 -98 -13 -27 -28 -67
-34 -89 -12 -42 -35 -71 -45 -55 -8 13 12 73 59 177 7 17 21 49 30 73 10 23
19 42 22 42 3 0 2 -23 -2 -50z m-2520 -30 c166 -11 228 -14 343 -18 33 -2 42
-6 42 -19 1 -17 1 -17 11 0 11 18 59 24 59 6 0 -6 -5 -20 -11 -32 -8 -18 -5
-17 15 6 25 27 56 36 56 17 0 -6 -7 -25 -16 -43 l-15 -32 20 25 c11 14 23 33
27 43 3 9 15 17 26 17 22 0 22 -7 -6 -75 l-17 -40 25 30 c14 16 31 42 37 57 6
16 15 28 20 28 18 0 17 -19 -1 -55 -28 -54 -18 -55 22 -1 18 25 39 45 46 46
18 0 -10 -51 -70 -129 -28 -35 -46 -62 -40 -60 15 6 117 122 138 158 16 28 34
41 34 25 0 -12 -79 -145 -128 -215 -20 -29 -19 -28 12 6 20 22 36 44 36 48 0
4 10 18 23 31 13 13 36 39 50 57 16 20 27 28 27 19 1 -8 7 0 15 18 27 61 35
32 9 -35 -31 -83 -102 -207 -160 -278 -24 -29 -40 -55 -37 -59 3 -3 -18 -31
-48 -62 -247 -260 -426 -384 -765 -529 -141 -61 -200 -81 -289 -100 -40 -8
-80 -17 -89 -21 -9 -3 -16 -2 -16 3 0 5 28 16 63 25 87 21 49 36 -46 17 -87
-17 -89 -17 -94 -3 -2 6 17 19 42 28 64 25 99 57 125 118 48 113 6 259 -109
374 -67 68 -201 166 -323 237 -91 52 -101 55 -96 30 2 -10 71 -66 153 -125
180 -130 255 -200 292 -276 57 -117 37 -244 -48 -298 -52 -33 -59 -30 -22 9
40 41 70 129 55 160 -10 21 -11 20 -11 -10 -1 -48 -34 -114 -77 -154 -22 -20
-52 -53 -67 -74 -16 -20 -31 -34 -35 -31 -3 3 2 14 11 24 29 32 66 126 77 196
14 89 4 169 -27 223 -28 49 -47 66 -34 31 4 -13 14 -53 20 -90 30 -174 -71
-353 -246 -435 -67 -31 -90 -37 -168 -41 -145 -7 -452 60 -680 148 -44 17 -93
35 -108 40 -52 16 -298 149 -400 216 -200 131 -491 465 -557 638 -9 26 -9 27
5 16 8 -7 15 -20 15 -29 0 -14 2 -14 10 -1 9 13 14 11 33 -10 12 -14 30 -37
40 -50 10 -14 1 6 -19 43 -20 38 -33 72 -28 76 18 16 467 82 719 106 205 19
225 19 225 0 0 -32 42 -96 81 -124 50 -37 113 -51 237 -52 53 -1 108 -4 122
-8 24 -7 23 -8 -19 -30 -58 -30 -142 -110 -187 -177 -53 -81 -75 -155 -76
-254 -2 -245 142 -421 391 -476 123 -28 285 -5 378 52 47 29 143 127 164 166
32 63 41 161 21 238 -13 51 -17 59 -19 35 -10 -119 -59 -239 -122 -300 -23
-21 -41 -34 -41 -29 0 6 14 23 30 37 17 15 30 32 30 38 0 6 6 17 14 24 18 18
29 114 21 176 -10 75 -22 67 -27 -19 -8 -126 -70 -216 -157 -226 l-45 -5 59
59 c70 71 67 78 -7 15 -67 -58 -69 -59 -90 -63 -26 -4 -22 8 17 53 56 64 92
161 110 302 12 93 -42 247 -112 317 -70 70 -241 122 -446 135 -144 9 -165 18
-204 87 -27 46 -28 54 -8 54 8 0 15 -6 15 -14 0 -19 84 -102 109 -109 27 -7
28 10 1 18 -26 8 -103 96 -93 106 27 27 1378 33 1778 9z m2294 -76 c-49 -141
-248 -523 -257 -496 -2 7 6 25 17 41 12 16 40 67 62 113 23 46 47 90 54 98 11
12 116 258 139 324 4 10 9 17 11 14 3 -3 -9 -45 -26 -94z m-166 45 c29 -16 36
-27 30 -50 -9 -31 -22 -32 -64 -5 -46 31 -54 66 -13 66 14 0 35 -5 47 -11z
m-3963 -19 c6 -11 8 -20 6 -20 -3 0 -10 9 -16 20 -6 11 -8 20 -6 20 3 0 10 -9
16 -20z m2760 -18 c0 -9 -13 -60 -30 -112 -37 -116 -40 -174 -5 -85 12 33 36
93 51 133 16 39 34 72 40 72 13 0 7 -37 -6 -45 -5 -3 -6 -15 -2 -27 4 -16 2
-19 -8 -13 -10 6 -12 4 -7 -9 9 -23 -16 -123 -41 -168 -11 -20 -26 -54 -33
-77 -7 -22 -16 -38 -22 -34 -6 4 -7 1 -2 -6 4 -8 -1 -21 -14 -32 -23 -22 -26
-35 -11 -44 6 -3 10 -2 10 4 0 6 14 34 31 63 55 92 89 162 100 203 6 22 20 67
32 100 17 46 23 54 25 36 6 -39 -16 -106 -66 -209 -60 -120 -72 -143 -94 -163
-10 -9 -18 -23 -18 -32 0 -23 -19 -31 -26 -12 -6 14 -9 13 -21 -5 -12 -17 -13
-24 -3 -33 10 -9 12 -8 7 6 -4 9 -2 17 4 17 15 0 22 -29 10 -43 -6 -8 -12 -22
-14 -33 -4 -27 -24 -54 -117 -155 -45 -50 -86 -86 -92 -83 -6 4 -8 2 -5 -3 7
-11 -58 -73 -76 -73 -6 0 -8 -3 -4 -6 8 -9 -59 -65 -75 -62 -7 2 -12 -3 -10
-11 2 -8 -3 -11 -12 -8 -10 4 -13 1 -10 -7 5 -12 -121 -100 -182 -128 -14 -6
-23 -17 -20 -24 3 -7 -2 -10 -13 -7 -18 4 -96 -35 -87 -44 3 -3 22 4 42 16 49
29 56 19 7 -11 -45 -29 -189 -98 -202 -98 -5 0 -11 -5 -13 -10 -3 -10 -33 -17
-76 -19 -7 -1 -10 -6 -6 -13 5 -8 2 -9 -11 -5 -9 4 -23 3 -29 -2 -13 -10 -134
-54 -156 -56 -35 -4 -88 -18 -140 -37 -30 -11 -82 -26 -115 -33 -52 -11 -100
-18 -282 -40 -18 -2 -47 0 -65 5 -43 12 -194 20 -230 13 -33 -6 -38 -23 -6
-23 12 0 19 -3 15 -6 -13 -13 -282 20 -422 52 -207 47 -306 76 -405 118 -46
20 -89 36 -95 36 -23 0 -245 118 -301 161 -32 25 -72 53 -89 63 -16 11 -46 37
-66 59 -25 28 -40 38 -50 32 -8 -5 -11 -5 -7 0 4 4 -31 34 -77 67 -47 33 -105
82 -129 108 -25 26 -47 46 -49 43 -3 -2 -8 4 -11 14 -3 10 -19 26 -36 35 -16
9 -30 24 -30 33 0 8 -5 15 -11 15 -5 0 -8 4 -5 9 3 5 -3 20 -15 32 l-20 24 13
-25 c7 -14 11 -29 10 -34 -3 -9 47 -72 102 -131 19 -19 30 -35 27 -35 -18 0
-231 245 -231 265 0 6 -9 16 -19 22 -11 7 -34 34 -52 60 -18 26 -36 50 -39 53
-14 10 -60 106 -60 125 0 19 1 19 15 -2 8 -12 12 -28 9 -37 -4 -10 -1 -16 8
-16 7 0 22 -15 33 -32 10 -18 25 -39 32 -46 7 -8 11 -18 8 -23 -4 -5 -2 -9 3
-9 5 0 28 -25 51 -55 23 -30 51 -60 63 -66 12 -7 -5 23 -44 72 -84 109 -170
255 -192 326 -13 40 17 17 47 -37 16 -28 30 -50 32 -50 2 0 -5 25 -16 57 -22
65 -22 63 -10 63 5 0 18 -15 30 -32 15 -24 21 -28 21 -15 0 10 -5 28 -12 40
-10 20 -10 21 5 8 15 -12 17 -11 18 5 0 16 2 15 10 -4 5 -13 15 -30 23 -37 12
-12 13 -9 9 28 l-6 42 28 -25 c18 -16 26 -19 23 -9 -6 15 7 48 15 39 2 -3 26
-47 53 -98 159 -306 526 -643 874 -805 187 -87 482 -181 645 -206 301 -47 632
-30 935 47 279 71 589 219 820 390 111 82 316 292 392 402 55 80 168 283 168
302 0 3 7 22 15 42 16 37 45 49 45 18z m-2725 -32 c10 -11 16 -20 13 -20 -3 0
-13 9 -23 20 -10 11 -16 20 -13 20 3 0 13 -9 23 -20z m-2780 -45 c3 -14 7 -36
10 -50 3 -14 2 -25 -3 -25 -10 0 -42 65 -42 85 0 25 29 17 35 -10z m5655 -50
c0 -8 -4 -15 -10 -15 -5 0 -7 7 -4 15 4 8 8 15 10 15 2 0 4 -7 4 -15z m962
-79 c10 -7 19 -24 20 -37 3 -20 -1 -23 -22 -21 -30 4 -109 49 -111 62 -1 6 -1
17 -1 25 0 8 0 20 1 26 1 10 74 -26 113 -55z m-6529 -47 c15 -30 36 -64 47
-77 11 -13 28 -51 39 -85 12 -40 32 -76 55 -100 20 -21 36 -43 36 -48 0 -14
91 -173 102 -177 7 -3 92 -114 130 -170 8 -12 31 -39 49 -60 19 -20 105 -116
191 -212 152 -169 280 -295 363 -355 22 -16 67 -55 100 -86 33 -31 85 -69 115
-84 30 -15 71 -42 91 -60 20 -18 76 -52 124 -75 49 -22 102 -52 119 -64 31
-23 71 -46 196 -114 36 -19 76 -44 89 -54 13 -10 30 -18 37 -18 8 0 14 -5 14
-11 0 -6 -7 -8 -17 -5 -9 4 -37 11 -61 17 -25 5 -109 41 -187 79 -78 39 -146
70 -151 70 -5 0 -31 18 -59 40 -27 22 -55 40 -61 40 -5 0 -53 34 -105 76 -51
41 -114 87 -139 101 -81 47 -122 77 -185 138 -34 33 -102 96 -150 140 -121
110 -197 186 -297 302 -96 111 -141 173 -253 352 -22 35 -52 77 -67 94 -15 17
-35 47 -44 67 -10 19 -28 52 -41 72 -42 67 -121 232 -136 285 l-16 52 22 -8
c12 -5 34 -32 50 -62z m3196 50 c17 -6 31 -16 31 -21 0 -7 -5 -6 -14 1 -10 8
-16 9 -21 1 -3 -5 -19 -10 -34 -10 -59 0 -126 -29 -184 -81 -31 -28 -55 -55
-52 -59 3 -5 -2 -13 -11 -18 -18 -10 -15 -48 4 -44 11 2 15 -9 10 -25 -4 -9
-28 -13 -27 -5 3 20 -2 32 -13 30 -17 -4 -35 -34 -48 -81 -8 -27 -16 -37 -26
-33 -11 4 -14 -9 -16 -72 l-2 -77 -3 75 c-3 61 1 88 22 149 35 96 61 138 127
195 84 73 180 102 257 75z m-3040 -93 c-3 -3 -11 5 -18 17 -13 21 -12 21 5 5
10 -10 16 -20 13 -22z m861 -46 c24 -47 26 -70 5 -70 -15 0 -55 68 -55 95 0
29 30 15 50 -25z m2130 31 c0 -6 -4 -13 -10 -16 -5 -3 -10 1 -10 9 0 9 5 16
10 16 6 0 10 -4 10 -9z m2697 -7 c6 -16 -35 -104 -48 -104 -4 0 -12 6 -19 14
-9 12 -6 24 15 60 29 49 42 56 52 30z m-386 -21 c-12 -20 -14 -14 -5 12 4 9 9
14 11 11 3 -2 0 -13 -6 -23z m-4717 1 c19 -18 21 -54 4 -54 -19 0 -48 31 -48
52 0 22 23 24 44 2z m2281 7 c3 -5 2 -12 -3 -15 -5 -3 -9 1 -9 9 0 17 3 19 12
6z m3085 -8 c0 -20 -28 -53 -47 -53 -16 0 -17 24 -3 51 13 24 50 26 50 2z
m-5197 -70 c60 -102 65 -116 42 -112 -22 5 -104 135 -105 167 0 39 17 24 63
-55z m5043 48 c0 -11 -4 -17 -9 -14 -5 3 -7 -1 -6 -8 3 -21 -12 -50 -22 -43
-5 3 -12 -3 -16 -12 -7 -18 -43 -58 -43 -48 0 3 8 18 18 32 10 15 26 46 37 70
19 44 41 56 41 23z m-2889 -21 c-1 -20 -8 -25 -20 -14 -7 8 3 34 13 34 5 0 8
-9 7 -20z m69 9 c3 -6 0 -15 -7 -20 -12 -8 -12 -11 1 -19 9 -6 10 -10 3 -10
-20 0 -26 20 -11 37 11 15 11 16 -4 10 -10 -3 -18 -2 -18 3 0 14 27 13 36 -1z
m2278 -45 c-43 -78 -75 -126 -80 -121 -2 2 19 43 48 90 55 92 77 113 32 31z
m90 44 c-34 -59 -70 -91 -42 -37 22 40 29 49 39 49 6 0 7 -6 3 -12z m-5377
-23 c0 -8 -4 -12 -9 -9 -5 3 -6 10 -3 15 9 13 12 11 12 -6z m2839 -6 c19 -22
19 -22 -3 -10 -13 6 -23 16 -23 21 0 15 5 12 26 -11z m84 -24 c0 -8 6 -12 14
-9 8 3 24 -4 35 -15 22 -22 37 -28 26 -11 -3 6 -1 10 5 10 7 0 10 -6 7 -12 -5
-14 -10 -14 -81 0 -43 9 -52 8 -69 -9 -12 -10 -24 -19 -27 -19 -4 0 -13 -11
-20 -25 -7 -14 -17 -25 -22 -25 -13 0 -9 17 7 33 8 8 11 18 7 22 -4 5 -1 5 6
1 8 -5 12 0 12 14 0 12 5 18 10 15 6 -4 7 -12 4 -18 -3 -7 6 2 21 18 14 17 29
29 31 28 2 -2 10 -3 17 -3 8 0 7 4 -3 10 -13 8 -12 10 3 10 9 0 17 -7 17 -15z
m-1726 -43 c4 1 13 -6 19 -17 37 -64 202 -265 271 -330 35 -33 30 -50 -6 -20
-18 15 -33 33 -33 39 -1 6 -6 10 -13 8 -7 -1 -12 3 -12 8 0 6 -12 20 -26 33
-14 12 -47 49 -72 82 -26 33 -52 65 -58 70 -7 6 -24 31 -37 57 -14 26 -28 44
-33 40 -4 -4 -4 -2 -1 4 4 7 0 14 -8 18 -8 3 -15 11 -15 18 0 10 2 10 9 0 4
-8 11 -12 15 -10z m4111 -2 c-10 -11 -20 -18 -23 -16 -5 6 21 35 32 36 5 0 1
-9 -9 -20z m-4571 -82 c-19 -31 -83 34 -69 70 5 14 12 10 40 -23 18 -21 31
-43 29 -47z m246 63 c16 -31 12 -51 -10 -51 -22 0 -44 34 -36 56 8 20 34 17
46 -5z m4654 4 c8 -21 -15 -55 -36 -55 -12 0 -18 8 -18 23 0 40 41 64 54 32z
m-2874 -6 c0 -5 -5 -7 -12 -3 -8 5 -9 1 -4 -12 5 -14 4 -16 -5 -7 -6 6 -8 16
-5 22 9 14 26 14 26 0z m3133 5 c7 -7 -42 -84 -54 -84 -14 0 -10 30 8 61 17
28 33 36 46 23z m-536 -31 c-3 -3 -11 -2 -17 2 -9 6 -9 10 1 16 14 8 27 -7 16
-18z m-121 -41 c-17 -16 -18 -16 -5 5 7 12 15 20 18 17 3 -2 -3 -12 -13 -22z
m78 -12 c-6 -6 -10 -2 -11 12 -2 16 1 18 10 9 7 -7 8 -14 1 -21z m-4417 -5 c3
-9 2 -19 -2 -23 -4 -4 -10 -2 -12 5 -2 7 -11 9 -19 6 -10 -4 -12 0 -8 11 8 20
33 21 41 1z m1833 5 c0 -5 -10 -10 -22 -9 -22 0 -22 1 -3 9 11 5 21 9 23 9 1
1 2 -3 2 -9z m3840 -9 c0 -27 -97 -171 -115 -171 -18 0 -19 2 -1 45 17 40 94
145 107 145 5 0 9 -8 9 -19z m-3860 -63 c0 -10 -4 -18 -10 -18 -5 0 -10 15
-10 33 0 24 3 28 10 17 5 -8 10 -23 10 -32z m2568 17 c-3 -3 -9 2 -12 12 -6
14 -5 15 5 6 7 -7 10 -15 7 -18z m-4472 -11 c12 -18 14 -28 6 -36 -23 -23 -61
14 -48 47 8 22 23 18 42 -11z m5498 -26 c-41 -66 -199 -274 -272 -358 -78 -89
-389 -400 -451 -450 -24 -19 -58 -47 -75 -61 -17 -15 -58 -43 -91 -64 -33 -21
-62 -41 -65 -44 -13 -16 -67 -45 -79 -43 -7 2 -10 -1 -7 -7 8 -12 -26 -36
-119 -86 -38 -21 -103 -58 -142 -82 -40 -23 -75 -43 -78 -43 -4 0 -48 -19
-249 -110 -200 -90 -588 -199 -856 -241 -146 -22 -485 -35 -511 -18 -9 5 42 9
136 9 139 0 304 16 435 41 159 30 305 64 388 90 51 16 102 29 115 29 12 0 49
12 82 26 33 14 94 38 135 53 108 41 423 196 500 246 295 192 352 231 425 295
22 20 65 56 95 80 126 104 288 263 380 375 36 44 80 95 99 114 18 20 41 47 49
61 9 14 33 46 54 71 21 25 38 49 38 53 0 4 18 28 40 53 22 25 40 50 40 56 0 6
3 8 6 5 3 -4 -7 -26 -22 -50z m-506 15 c-3 -30 -32 -43 -51 -24 -7 7 -5 16 8
31 26 29 47 26 43 -7z m205 12 c-3 -9 -8 -14 -10 -11 -3 3 -2 9 2 15 9 16 15
13 8 -4z m-4957 -39 c3 -8 1 -21 -5 -28 -7 -7 -19 -22 -27 -33 -11 -14 -17
-16 -21 -7 -2 7 -12 20 -21 29 -11 10 -13 18 -6 20 6 2 20 10 30 18 25 19 43
19 50 1z m4519 -6 l26 -10 -21 -30 c-18 -26 -24 -29 -37 -18 -18 14 -33 49
-26 61 6 10 27 9 58 -3z m-4648 -97 c12 -31 12 -33 -7 -33 -11 0 -29 9 -41 21
-16 16 -18 23 -8 35 18 22 41 13 56 -23z m4783 12 c0 -12 -57 -55 -72 -55 -24
0 -23 5 9 45 22 27 30 32 45 24 10 -5 18 -12 18 -14z m-4560 -21 c0 -8 -4 -12
-10 -9 -5 3 -8 0 -5 -7 2 -7 -6 -26 -18 -41 -23 -27 -24 -27 -40 -9 -17 18
-16 21 18 51 40 34 55 39 55 15z m4320 -26 c22 -24 27 -35 19 -45 -20 -24 -69
20 -69 61 0 25 19 19 50 -16z m-3831 -65 c20 -18 31 -33 26 -33 -6 0 -33 23
-60 52 -49 52 -36 44 34 -19z m4199 20 c-23 -28 -30 -55 -16 -65 10 -6 10 -8
1 -8 -8 0 -13 -13 -13 -31 0 -18 4 -28 10 -24 6 4 8 10 5 15 -6 10 13 25 21
17 7 -7 -13 -44 -48 -87 -32 -41 -81 -73 -94 -62 -4 4 -2 -1 6 -11 12 -17 7
-25 -61 -88 -41 -38 -77 -69 -81 -69 -5 0 -44 -33 -89 -72 -45 -40 -94 -82
-109 -93 -15 -11 -61 -45 -102 -76 -144 -109 -357 -233 -558 -327 -78 -36
-323 -132 -395 -154 -136 -41 -369 -93 -560 -123 -139 -22 -553 -31 -723 -16
-250 22 -624 104 -857 187 -71 25 -141 49 -155 54 -14 4 -88 37 -163 74 -76
36 -141 66 -145 66 -4 0 -44 24 -90 53 -45 28 -114 71 -154 95 -92 54 -162
103 -197 136 -15 14 -33 26 -41 26 -23 0 -4 11 34 20 24 5 37 4 40 -4 4 -10
10 20 7 37 -1 5 9 1 21 -7 13 -9 23 -22 23 -28 0 -6 6 -13 14 -16 9 -3 11 0 6
7 -4 7 20 -5 53 -25 34 -21 58 -42 55 -48 -3 -5 -1 -6 5 -2 7 4 40 -12 74 -36
88 -59 441 -236 573 -287 223 -86 506 -157 770 -193 225 -30 562 -30 795 1
331 43 519 93 835 219 171 68 234 98 359 170 49 29 91 52 94 52 3 0 19 10 36
23 17 13 76 55 131 92 97 67 171 123 265 202 25 20 131 124 235 229 173 175
224 224 183 177z m-4789 -11 c21 -39 -41 -59 -72 -24 -13 14 -14 21 -5 30 19
19 66 15 77 -6z m566 -63 c28 -26 62 -58 77 -71 15 -14 25 -28 22 -31 -6 -6
-19 2 -60 40 -13 12 -24 19 -24 15 0 -3 -25 18 -55 48 -30 29 -52 57 -49 62 7
10 20 1 89 -63z m3975 61 c24 -15 -17 -53 -50 -45 -38 10 -47 23 -24 40 22 16
52 19 74 5z m-4343 -22 c-2 -7 -10 -12 -17 -10 -18 4 -31 -20 -19 -34 16 -20
-11 -29 -29 -10 -16 16 -15 19 13 42 32 26 60 32 52 12z m4115 -16 c19 -21 23
-33 16 -45 -5 -10 -12 -17 -16 -17 -13 0 -54 69 -47 79 10 17 20 13 47 -17z
m-2020 -52 c-36 -29 -145 -70 -189 -70 l-26 0 23 25 c28 30 82 49 111 40 15
-5 19 -4 15 4 -5 7 2 11 16 11 13 0 34 6 48 13 38 21 39 8 2 -23z m-2176 -5
c19 -15 19 -15 0 -30 -25 -19 -41 -19 -72 1 -19 13 -22 20 -13 30 15 18 60 18
85 -1z m584 -10 c7 -8 18 -15 25 -15 11 0 85 -66 85 -76 0 -3 -28 16 -62 42
-81 60 -84 64 -71 64 6 0 16 -7 23 -15z m3210 -6 c0 -5 -4 -9 -8 -9 -5 0 -9 7
-9 15 0 8 4 12 9 9 4 -3 8 -9 8 -15z m526 0 c9 -15 -8 -30 -42 -33 -46 -5 -58
3 -38 25 19 21 69 26 80 8z m-4133 -12 c6 -16 -29 -60 -43 -52 -6 4 -7 -1 -3
-12 6 -16 4 -16 -16 2 l-23 20 33 27 c37 31 45 34 52 15z m3477 -2 c-41 -49
-490 -324 -490 -300 0 2 21 16 48 31 94 53 187 108 192 114 3 3 30 21 60 40
30 19 60 38 65 42 69 54 113 83 134 87 2 1 -2 -6 -9 -14z m426 -21 c14 -21 15
-27 4 -34 -27 -17 -56 13 -44 45 9 22 21 18 40 -11z m-1620 -3 c-11 -12 -14
-21 -7 -26 6 -3 11 -12 11 -18 0 -7 -7 -4 -15 7 -15 20 -5 56 17 56 6 0 3 -9
-6 -19z m-1879 -41 c3 -11 9 -17 14 -14 5 3 19 -2 31 -10 l22 -16 -22 0 c-15
0 -21 4 -16 12 5 7 2 9 -9 5 -17 -7 -41 15 -29 28 4 5 -1 5 -10 2 -10 -4 -18
-2 -18 3 0 19 32 10 37 -10z m-494 -18 c32 -35 -28 -59 -69 -27 -19 15 -19 15
0 30 26 20 49 19 69 -3z m667 -21 c3 -3 25 -19 48 -34 24 -16 41 -31 39 -34
-6 -5 -69 37 -117 77 l-25 21 25 -12 c14 -7 27 -15 30 -18z m3450 14 c11 -13
10 -18 -6 -30 -24 -18 -58 -19 -73 -1 -10 11 -7 17 11 30 28 20 52 20 68 1z
m-1630 -5 c0 -5 -10 -10 -22 -9 -22 0 -22 1 -3 9 11 5 21 9 23 9 1 1 2 -3 2
-9z m-2300 -20 c0 -5 -5 -10 -11 -10 -5 0 -7 -5 -3 -12 4 -7 3 -8 -4 -4 -17
10 -15 36 3 36 8 0 15 -4 15 -10z m400 -15 c4 3 13 -2 19 -9 7 -8 8 -17 3 -20
-13 -8 -53 24 -45 37 5 8 8 8 11 -1 2 -7 7 -10 12 -7z m2870 -29 c0 -8 -7 -17
-16 -20 -25 -10 -30 2 -8 19 24 18 24 18 24 1z m-3335 -20 c16 -12 17 -16 6
-30 -7 -9 -21 -16 -31 -16 -25 0 -65 34 -56 48 10 16 58 15 81 -2z m555 -16
c0 -5 8 -11 18 -13 14 -4 14 -5 -3 -6 -11 0 -33 10 -50 24 l-30 25 33 -11 c17
-6 32 -15 32 -19z m142 -6 c46 -29 207 -108 223 -109 19 -2 90 -27 110 -39 26
-16 170 -66 193 -67 9 0 42 -9 72 -20 31 -11 42 -17 25 -15 -61 9 -222 55
-279 80 -32 14 -70 28 -84 31 -34 6 -287 131 -302 150 -18 22 -5 18 42 -11z
m3188 14 c0 -18 -31 -48 -50 -48 -10 0 -23 6 -29 14 -10 11 -7 17 11 30 26 19
68 21 68 4z m-608 -5 c-6 -2 -10 -9 -7 -14 4 -5 -1 -6 -10 -3 -10 4 -15 2 -13
-7 2 -7 -6 -15 -17 -17 -17 -4 -16 0 8 22 15 14 33 26 40 25 9 0 9 -2 -1 -6z
m-3064 -41 c4 -23 -4 -27 -27 -13 -17 11 -7 45 12 39 6 -3 13 -14 15 -26z
m3422 3 c0 -19 -36 -39 -45 -25 -11 18 3 40 25 40 11 0 20 -7 20 -15z m-3026
-7 c-3 -4 -11 -5 -19 -1 -21 7 -19 12 4 10 11 0 18 -5 15 -9z m61 -29 c-3 -4
-12 -6 -20 -3 -8 4 -13 10 -10 15 3 4 12 6 20 3 8 -4 13 -10 10 -15z m2520 11
c3 -6 -1 -7 -9 -4 -18 7 -21 14 -7 14 6 0 13 -4 16 -10z m-3083 -29 c-1 -7 2
-10 7 -7 5 4 26 -5 45 -18 28 -18 33 -26 23 -35 -14 -11 -34 -3 -90 33 -22 15
-25 21 -16 33 14 16 35 11 31 -6z m618 -7 c22 -9 40 -20 40 -25 0 -5 7 -6 15
-3 8 4 15 1 15 -5 0 -6 3 -10 8 -9 4 0 25 -7 47 -16 110 -46 143 -60 183 -78
23 -10 50 -20 60 -22 9 -1 30 -8 45 -14 16 -7 36 -12 46 -12 21 0 83 -20 94
-30 22 -19 -156 28 -273 73 -96 37 -253 107 -269 120 -8 7 -26 17 -40 24 -39
17 -17 15 29 -3z m3015 5 c15 -23 -80 -89 -105 -74 -16 10 -10 20 35 54 43 32
60 37 70 20z m-630 -9 c5 -7 -74 -57 -82 -51 -11 5 -33 -1 -28 -8 3 -5 -5 -13
-17 -16 -13 -4 -43 -16 -68 -27 -45 -21 -146 -38 -105 -19 11 5 32 10 47 10
15 1 34 9 43 18 15 15 31 20 74 22 8 1 11 4 8 8 -11 10 51 43 69 36 11 -4 15
-3 10 5 -3 6 2 15 11 21 23 13 30 13 38 1z m-2745 -24 c0 -2 3 -11 6 -20 4
-10 1 -16 -9 -16 -17 0 -40 24 -30 33 7 8 33 10 33 3z m2530 -13 c-8 -3 -33
-13 -55 -23 -22 -9 -56 -21 -75 -24 -23 -5 -11 3 35 23 39 16 79 30 90 30 14
-1 15 -2 5 -6z m590 -13 c0 -13 -7 -20 -20 -20 -13 0 -20 7 -20 20 0 13 7 20
20 20 13 0 20 -7 20 -20z m-3170 -64 c58 -34 68 -49 35 -54 -26 -3 -125 54
-125 73 0 23 30 17 90 -19z m2380 7 c-19 -8 -44 -17 -54 -19 -10 -2 -34 -8
-53 -15 -18 -6 -38 -9 -44 -7 -7 2 6 9 27 15 22 7 59 18 84 26 60 19 84 19 40
0z m887 -7 c-2 -6 -27 -26 -57 -43 -40 -25 -57 -30 -67 -22 -21 18 -16 24 44
57 54 29 88 32 80 8z m-3024 -31 c7 -16 -8 -29 -23 -20 -15 9 -12 35 4 35 8 0
16 -7 19 -15z m2243 -7 c-10 -6 -30 -11 -45 -13 -14 -1 -44 -10 -66 -20 -22
-10 -57 -18 -77 -18 -21 0 -35 -3 -33 -8 3 -4 -4 -7 -15 -6 -11 1 -20 4 -20 8
0 10 81 28 98 22 11 -5 13 -3 7 6 -6 10 -2 11 15 6 17 -5 21 -4 15 6 -6 9 -2
11 13 7 12 -4 22 -2 22 2 0 4 16 8 36 8 19 0 38 3 41 6 4 3 11 6 17 6 6 0 3
-6 -8 -12z m494 -3 c0 -9 -7 -18 -16 -22 -18 -7 -39 11 -30 26 11 17 46 13 46
-4z m-848 -16 c-21 -8 -187 -39 -207 -39 -25 0 23 20 50 20 24 0 27 2 15 11
-13 9 -13 10 2 6 9 -3 28 -3 42 1 39 10 126 11 98 1z m-732 -30 c74 -5 210 -9
303 -8 170 2 217 -4 132 -17 -58 -8 -397 2 -485 15 -36 6 -86 11 -112 12 -26
2 -44 7 -41 12 3 5 20 6 37 3 17 -4 92 -11 166 -17z m-1216 -22 c63 -35 82
-57 47 -57 -24 0 -116 44 -126 60 -7 11 2 30 13 29 4 0 34 -15 66 -32z m2025
-7 c-8 -4 -41 -10 -74 -14 -32 -4 -69 -9 -82 -12 -13 -4 -23 -2 -23 4 0 12 71
25 128 24 24 -1 40 3 37 8 -3 6 1 7 11 3 13 -5 13 -7 3 -13z m865 11 c8 -12
-21 -34 -78 -61 -34 -16 -51 -20 -54 -12 -6 20 -1 26 47 54 48 28 76 34 85 19z
m-2646 -24 c2 -10 -3 -17 -11 -17 -16 0 -30 24 -19 34 10 10 27 1 30 -17z
m2357 -2 c0 -13 -8 -21 -22 -23 -17 -3 -23 2 -23 16 0 10 3 22 7 26 13 13 38
1 38 -19z m-1571 -10 c37 -2 80 -6 94 -10 14 -3 73 -8 130 -11 58 -2 108 -6
111 -10 6 -6 -225 1 -313 9 -73 8 -166 26 -166 34 0 3 17 2 38 -2 20 -4 68 -9
106 -10z m746 -11 c-30 -8 -87 -15 -127 -16 -40 -1 -71 -4 -69 -7 5 -7 -105
-3 -112 4 -3 3 21 6 54 7 121 5 139 6 154 12 14 5 74 11 130 13 14 1 0 -5 -30
-13z m-1561 -61 c41 -18 52 -26 43 -35 -22 -22 -142 26 -142 58 0 18 15 14 99
-23z m219 13 c3 -13 -1 -17 -14 -14 -11 2 -20 11 -22 22 -3 13 1 17 14 14 11
-2 20 -11 22 -22z m1972 -6 c0 -13 -7 -20 -19 -20 -22 0 -35 15 -26 30 12 19
45 11 45 -10z m288 -2 c2 -10 -14 -23 -47 -37 -63 -27 -94 -30 -98 -11 -2 10
17 24 59 41 69 29 81 30 86 7z m-3313 -28 c3 -5 2 -10 -4 -10 -5 0 -13 5 -16
10 -3 6 -2 10 4 10 5 0 13 -4 16 -10z m1275 -30 c0 -11 -6 -20 -14 -20 -18 0
-29 16 -21 30 11 18 35 11 35 -10z m1530 -11 c0 -12 -7 -19 -20 -19 -22 0 -29
35 -7 43 18 6 27 -2 27 -24z m-1784 -9 c67 -24 85 -36 61 -46 -24 -9 -147 35
-147 52 0 19 16 18 86 -6z m2084 2 c0 -21 -52 -49 -110 -58 -66 -11 -50 18 28
48 83 32 82 32 82 10z m-1580 -32 c0 -13 -7 -20 -20 -20 -13 0 -20 7 -20 20 0
13 7 20 20 20 13 0 20 -7 20 -20z m1050 0 c0 -13 -7 -20 -20 -20 -13 0 -20 7
-20 20 0 13 7 20 20 20 13 0 20 -7 20 -20z m-2395 -35 c39 -32 29 -32 -15 0
-19 14 -30 25 -24 25 5 -1 23 -12 39 -25z m1142 -32 c7 -21 -17 -23 -89 -7
-80 18 -93 25 -85 47 4 12 18 11 88 -8 46 -12 84 -26 86 -32z m401 40 c5 -17
-26 -29 -40 -15 -6 6 -7 15 -3 22 9 14 37 9 43 -7z m660 -6 c3 -12 -3 -17 -22
-17 -25 0 -35 18 -19 34 12 12 38 2 41 -17z m-433 -12 c0 -23 -34 -33 -45 -14
-13 20 1 40 24 37 13 -2 21 -10 21 -23z m195 0 c0 -18 -5 -25 -19 -25 -26 0
-36 17 -21 35 19 23 40 18 40 -10z m750 0 c0 -26 -150 -59 -165 -36 -7 13 9
22 69 36 71 18 96 18 96 0z m-2649 -32 c13 -15 12 -15 -8 -4 -24 12 -29 21
-14 21 5 0 15 -7 22 -17z m1230 -8 c56 -8 71 -17 64 -37 -6 -16 -20 -15 -107
4 -38 8 -48 14 -48 30 0 16 5 19 23 15 12 -3 43 -9 68 -12z m1187 -12 c-2 -11
-21 -21 -53 -30 -70 -18 -85 -17 -85 7 0 14 9 21 38 25 20 4 42 8 47 10 30 10
56 4 53 -12z m-945 -30 c57 -5 67 -9 67 -25 0 -18 -5 -19 -57 -13 -105 11
-123 15 -123 30 0 17 14 18 113 8z m747 -8 c0 -16 -34 -23 -125 -27 -49 -3
-60 0 -63 14 -4 18 21 23 131 26 44 2 57 -1 57 -13z m-2031 -43 c-9 -4 -66 24
-73 36 -3 5 14 -1 38 -12 23 -12 39 -22 35 -24z m1779 21 c-3 -16 -21 -18
-177 -21 -130 -2 -176 1 -182 10 -4 7 -5 16 -3 20 3 4 86 8 185 8 167 0 180
-1 177 -17z m-1707 -52 c30 -10 92 -37 138 -60 47 -22 91 -41 99 -41 7 0 19
-6 27 -13 7 -7 68 -28 136 -45 68 -18 144 -39 169 -46 25 -8 90 -24 145 -35
55 -12 132 -28 170 -36 127 -27 346 -53 504 -60 63 -3 116 -7 119 -10 11 -11
-219 -4 -345 10 -210 23 -481 78 -688 139 -27 8 -77 22 -110 31 -53 15 -137
49 -186 75 -9 4 -63 27 -120 50 -133 54 -169 80 -58 41z m101 -205 c49 -23
231 -86 303 -105 17 -4 62 -23 100 -42 78 -37 68 -51 -18 -25 -29 8 -91 27
-138 40 -47 14 -119 41 -160 59 -41 19 -87 37 -104 41 -47 12 -87 56 -50 56 8
0 38 -11 67 -24z m2635 -112 c-3 -3 -12 -4 -19 -1 -8 3 -5 6 6 6 11 1 17 -2
13 -5z m-92 -39 c-30 -25 -91 -40 -136 -33 -18 2 -9 9 41 29 36 15 79 27 95
27 l30 1 -30 -24z"/>
<path d="M6120 8534 c8 -3 24 -10 35 -15 14 -7 29 -7 45 0 22 8 22 10 5 10
-11 1 -38 3 -60 6 -22 3 -33 3 -25 -1z"/>
<path d="M6105 8510 c3 -5 8 -10 11 -10 2 0 4 5 4 10 0 6 -5 10 -11 10 -5 0
-7 -4 -4 -10z"/>
<path d="M6168 8493 c6 -2 18 -2 25 0 6 3 1 5 -13 5 -14 0 -19 -2 -12 -5z"/>
<path d="M2595 7540 c-3 -5 -1 -10 4 -10 6 0 11 5 11 10 0 6 -2 10 -4 10 -3 0
-8 -4 -11 -10z"/>
<path d="M2540 7480 c-20 -30 -20 -33 -3 -17 11 9 23 14 27 10 4 -4 4 1 0 11
-5 13 -4 17 3 13 6 -4 15 -1 21 6 8 9 6 13 -7 13 -10 0 -28 -16 -41 -36z"/>
<path d="M2010 6749 c0 -5 5 -7 10 -4 6 3 10 8 10 11 0 2 -4 4 -10 4 -5 0 -10
-5 -10 -11z"/>
<path d="M1795 3596 c2 -16 7 -31 11 -35 3 -3 4 3 2 14 -2 12 2 19 9 18 7 -2
10 4 6 13 -4 11 -8 12 -13 4 -6 -9 -9 -9 -13 1 -3 8 -4 1 -2 -15z"/>
<path d="M1828 3538 c-8 -19 17 -33 28 -16 4 6 3 8 -4 4 -6 -3 -12 2 -14 11
-3 16 -4 17 -10 1z"/>
<path d="M5031 7926 c-29 -34 10 -93 46 -70 29 18 39 42 27 62 -14 22 -57 27
-73 8z"/>
<path d="M5375 7930 c-7 -12 2 -30 16 -30 12 0 12 27 0 35 -5 3 -12 1 -16 -5z"/>
<path d="M5302 7824 c-29 -20 -31 -85 -2 -114 27 -27 71 -26 98 3 29 31 28 72
-3 102 -28 29 -61 32 -93 9z"/>
<path d="M5618 7624 c4 -77 1 -98 -19 -145 -28 -67 -95 -162 -129 -182 -14 -9
-36 -25 -50 -37 -14 -13 -54 -36 -90 -53 -51 -24 -81 -32 -147 -35 -87 -5
-101 -17 -30 -27 167 -24 382 93 453 247 24 52 29 79 32 158 3 67 -1 106 -10
130 -14 33 -14 30 -10 -56z"/>
<path d="M4847 7623 c5 -41 3 -54 -5 -49 -7 4 -12 22 -12 39 0 36 -15 65 -27
53 -15 -14 -9 -104 8 -121 14 -14 18 -14 42 5 17 14 27 31 27 48 0 40 -10 70
-25 76 -11 4 -12 -7 -8 -51z"/>
<path d="M5581 7616 c-1 -91 -39 -170 -118 -248 -64 -63 -189 -134 -254 -144
-45 -8 -58 -20 -30 -29 59 -18 247 70 318 150 85 96 122 213 95 305 -9 32 -10
30 -11 -34z"/>
<path d="M5096 7605 c-9 -9 -16 -24 -16 -34 0 -43 58 -56 84 -19 13 19 14 25
2 43 -17 26 -49 31 -70 10z"/>
<path d="M5509 7522 c-31 -68 -46 -87 -103 -135 -37 -30 -102 -72 -143 -94
-91 -46 -72 -59 22 -15 153 72 230 148 255 252 19 80 7 76 -31 -8z"/>
<path d="M5481 7527 c-13 -21 -12 -21 5 -5 10 10 16 20 13 22 -3 3 -11 -5 -18
-17z"/>
<path d="M4860 7510 c-9 -6 -10 -10 -3 -10 6 0 15 5 18 10 8 12 4 12 -15 0z"/>
<path d="M5400 7470 c0 -5 5 -10 10 -10 6 0 10 5 10 10 0 6 -4 10 -10 10 -5 0
-10 -4 -10 -10z"/>
<path d="M4982 7358 c-18 -18 -14 -53 8 -73 16 -15 26 -17 48 -9 29 10 37 31
28 70 -5 19 -13 24 -39 24 -18 0 -38 -5 -45 -12z"/>
<path d="M5608 6873 c7 -3 16 -2 19 1 4 3 -2 6 -13 5 -11 0 -14 -3 -6 -6z"/>
<path d="M6900 6343 c0 -10 35 -44 58 -57 20 -12 14 -3 -23 33 -19 19 -35 29
-35 24z"/>
<path d="M7005 6227 c10 -15 20 -25 23 -22 3 3 -5 16 -17 28 l-23 22 17 -28z"/>
<path d="M6988 6167 c30 -38 51 -71 48 -74 -3 -3 3 -22 14 -43 11 -21 17 -40
15 -44 -3 -3 0 -2 7 3 8 7 7 17 -6 35 -21 32 -20 40 2 32 15 -5 15 -4 2 6 -8
7 -34 39 -58 70 -24 31 -51 63 -60 70 -9 7 7 -18 36 -55z"/>
<path d="M7050 6171 c0 -6 4 -13 10 -16 6 -3 7 1 4 9 -7 18 -14 21 -14 7z"/>
<path d="M7087 6105 c9 -19 18 -33 21 -31 4 5 -26 66 -33 66 -3 0 3 -16 12
-35z"/>
<path d="M6960 6116 c0 -2 8 -10 18 -17 15 -13 16 -12 3 4 -13 16 -21 21 -21
13z"/>
<path d="M7010 6040 c6 -11 13 -20 16 -20 2 0 0 9 -6 20 -6 11 -13 20 -16 20
-2 0 0 -9 6 -20z"/>
<path d="M7160 6044 c0 -8 5 -12 10 -9 6 4 8 11 5 16 -9 14 -15 11 -15 -7z"/>
<path d="M4835 6599 c-43 -40 -96 -128 -94 -158 0 -9 11 8 24 37 13 28 47 77
76 107 61 65 58 73 -6 14z"/>
<path d="M5030 6600 c-54 -18 -120 -75 -120 -102 0 -7 8 -4 18 8 27 33 87 74
123 85 19 6 66 14 104 18 l70 8 -70 1 c-45 1 -89 -5 -125 -18z"/>
<path d="M5570 6594 c0 -9 5 -14 12 -12 18 6 21 28 4 28 -9 0 -16 -7 -16 -16z"/>
<path d="M4702 6591 c4 -13 18 -16 19 -4 0 4 -5 9 -11 12 -7 2 -11 -2 -8 -8z"/>
<path d="M5740 6560 c0 -13 7 -20 20 -20 13 0 20 7 20 20 0 13 -7 20 -20 20
-13 0 -20 -7 -20 -20z"/>
<path d="M4578 6554 c-48 -26 -46 -88 3 -115 32 -17 65 -3 83 35 19 41 13 62
-25 81 -33 18 -27 18 -61 -1z"/>
<path d="M5129 6559 c-77 -8 -152 -52 -210 -121 -56 -68 -69 -106 -69 -208 0
-62 5 -85 30 -138 80 -170 289 -247 465 -172 64 27 141 101 171 165 43 90 25
229 -42 330 -77 116 -187 162 -345 144z m177 -74 c58 -29 108 -74 77 -72 -10
1 -20 4 -23 7 -3 3 -25 14 -50 25 -32 15 -65 20 -125 19 -69 0 -86 -4 -120
-26 -75 -48 -128 -123 -140 -196 -4 -24 -9 -41 -12 -38 -13 12 -2 100 17 144
66 149 228 208 376 137z m-160 -60 c-2 -19 -1 -35 3 -35 12 0 38 24 43 40 2 8
7 10 10 4 4 -5 -2 -20 -11 -33 -16 -22 -22 -23 -57 -13 -21 5 -31 10 -21 11
10 1 15 6 12 11 -8 13 3 50 15 50 5 0 7 -16 6 -35z m-53 -2 c-20 -7 -15 -44 9
-65 19 -16 23 -17 30 -3 5 8 14 15 19 15 6 0 7 -4 4 -10 -3 -6 1 -7 9 -4 9 3
16 1 16 -5 0 -6 -9 -11 -19 -11 -25 0 -61 -45 -61 -76 0 -13 -4 -24 -9 -24
-19 0 -22 21 -7 45 20 31 20 35 -1 35 -14 0 -15 2 -4 9 10 7 11 13 2 30 -15
27 -25 27 -51 -1 -36 -38 -61 -93 -47 -107 15 -15 -3 -33 -22 -21 -29 17 5 89
71 154 32 32 62 55 66 51 4 -4 1 -10 -5 -12z m207 -36 c-14 -15 -63 -3 -66 16
-3 19 7 22 22 7 8 -8 15 -6 24 6 13 15 15 14 21 -3 4 -10 3 -22 -1 -26z m-80
3 c0 -5 -5 -10 -11 -10 -5 0 -7 5 -4 10 3 6 8 10 11 10 2 0 4 -4 4 -10z m40
-35 c11 7 33 -23 37 -48 2 -20 2 -20 -8 -4 -5 9 -24 24 -41 33 -24 12 -28 18
-17 25 8 5 15 4 17 -1 2 -6 7 -8 12 -5z m-195 -62 c2 -15 -1 -20 -10 -17 -7 3
-15 19 -17 35 -4 25 -3 28 9 16 7 -7 15 -23 18 -34z m275 22 c11 -13 10 -14
-4 -9 -9 3 -16 10 -16 15 0 13 6 11 20 -6z m-286 -82 c3 -8 -1 -10 -12 -6 -18
7 -32 22 -32 36 0 11 39 -15 44 -30z m-49 -33 c3 -5 1 -10 -4 -10 -6 0 -11 5
-11 10 0 6 2 10 4 10 3 0 8 -4 11 -10z m-68 -32 c-3 -8 -6 -5 -6 6 -1 11 2 17
5 13 3 -3 4 -12 1 -19z m118 12 c3 -5 -1 -10 -10 -10 -9 0 -13 5 -10 10 3 6 8
10 10 10 2 0 7 -4 10 -10z m-58 -22 c-3 -8 -6 -5 -6 6 -1 11 2 17 5 13 3 -3 4
-12 1 -19z"/>
<path d="M5510 6535 c29 -19 55 -35 58 -35 4 0 -15 16 -42 35 -27 19 -54 35
-59 35 -5 0 14 -16 43 -35z"/>
<path d="M5937 6513 c-4 -3 -7 -11 -7 -17 0 -6 5 -5 12 2 6 6 9 14 7 17 -3 3
-9 2 -12 -2z"/>
<path d="M5755 6445 c-30 -30 -32 -64 -4 -99 28 -35 91 -37 113 -3 28 43 29
71 2 100 -33 35 -78 36 -111 2z"/>
<path d="M4405 6432 c57 -28 152 -109 188 -162 l18 -25 -12 25 c-33 68 -182
190 -234 190 -11 0 7 -13 40 -28z"/>
<path d="M4806 6361 c-12 -19 -23 -137 -15 -156 5 -14 8 -6 9 30 0 28 5 69 9
93 8 42 7 50 -3 33z"/>
<path d="M4680 6305 c0 -28 24 -34 34 -9 8 20 -1 34 -20 34 -8 0 -14 -10 -14
-25z"/>
<path d="M6629 6248 c54 -97 74 -173 68 -268 -2 -47 -8 -93 -12 -102 -4 -10
-3 -18 3 -18 15 0 36 90 35 150 -1 63 -31 148 -80 232 -42 72 -54 77 -14 6z"/>
<path d="M5561 6274 c0 -11 3 -14 6 -6 3 7 2 16 -1 19 -3 4 -6 -2 -5 -13z"/>
<path d="M4611 6240 c-1 -3 6 -23 14 -45 8 -22 14 -31 14 -20 0 17 -28 80 -28
65z"/>
<path d="M5720 6160 c0 -13 5 -20 13 -17 6 2 12 10 12 17 0 7 -6 15 -12 18 -8
2 -13 -5 -13 -18z"/>
<path d="M5823 6115 c0 -22 2 -30 4 -17 2 12 2 30 0 40 -3 9 -5 -1 -4 -23z"/>
<path d="M5654 6080 c-31 -12 -54 -49 -54 -86 0 -68 98 -101 139 -48 54 69 -8
166 -85 134z"/>
<path d="M4822 6014 c1 -9 9 -19 16 -22 9 -3 13 2 10 14 -1 9 -9 19 -16 22 -9
3 -13 -2 -10 -14z"/>
<path d="M4700 5960 c-20 -20 -26 -65 -12 -86 20 -31 88 -44 110 -22 7 7 12
31 12 54 0 33 -5 47 -22 58 -31 22 -64 20 -88 -4z"/>
<path d="M3605 5930 c-16 -7 -17 -9 -3 -9 9 -1 20 4 23 9 7 11 7 11 -20 0z"/>
<path d="M5455 5879 c-5 -14 -2 -25 6 -30 21 -13 34 -5 34 22 0 31 -31 38 -40
8z"/>
<path d="M5288 5863 c7 -3 16 -2 19 1 4 3 -2 6 -13 5 -11 0 -14 -3 -6 -6z"/>
<path d="M5178 5853 c12 -2 32 -2 45 0 12 2 2 4 -23 4 -25 0 -35 -2 -22 -4z"/>
<path d="M3643 5813 c-7 -3 -13 -16 -13 -29 0 -17 6 -24 20 -24 15 0 20 7 20
24 0 27 -8 36 -27 29z"/>
<path d="M5183 5225 c-7 -22 -17 -67 -23 -100 -81 -440 -81 -438 -51 -454 12
-7 41 -7 87 0 100 15 124 26 124 58 0 28 -28 188 -70 401 l-27 135 -9 -60 -9
-60 -5 60 -5 60 -12 -40z"/>
<path d="M4016 5335 c-27 -8 -53 -20 -57 -27 -11 -16 -12 -448 -1 -448 23 0
152 45 172 60 25 19 25 20 28 204 2 121 -1 192 -8 206 -13 24 -58 26 -134 5z
m-9 -372 c-3 -10 -5 -2 -5 17 0 19 2 27 5 18 2 -10 2 -26 0 -35z m0 -55 c-3
-7 -5 -2 -5 12 0 14 2 19 5 13 2 -7 2 -19 0 -25z"/>
<path d="M7856 4997 c-21 -111 -45 -231 -52 -266 -9 -48 -9 -69 -1 -82 14 -23
37 -33 37 -16 0 9 2 9 8 0 10 -16 149 0 169 20 13 13 12 31 -12 153 -14 77
-35 188 -46 249 -20 109 -29 139 -29 96 0 -12 -4 -19 -10 -16 -6 4 -11 -8 -12
-27 -1 -18 -4 -5 -7 29 -6 61 -6 59 -45 -140z"/>
<path d="M2793 5073 c-10 -57 -10 -58 -12 -15 0 23 -5 42 -9 42 -10 0 -24 -71
-51 -250 -39 -255 -39 -259 -24 -271 22 -19 155 6 196 36 17 12 15 26 -32 260
-28 137 -52 250 -54 252 -2 2 -8 -23 -14 -54z"/>
<path d="M5436 4128 c-15 -43 -15 -49 0 -55 25 -9 33 10 19 42 -10 25 -14 27
-19 13z"/>
<path d="M5817 4152 c-12 -2 -17 -11 -15 -25 2 -17 11 -23 37 -25 35 -4 53 11
44 34 -5 13 -39 22 -66 16z"/>
<path d="M6460 4106 c0 -8 -3 -21 -6 -30 -5 -12 0 -16 19 -16 24 0 25 2 16 30
-11 31 -29 41 -29 16z"/>
<path d="M3896 4104 c-29 -29 -12 -58 28 -48 33 8 43 28 26 49 -16 19 -35 19
-54 -1z"/>
<path d="M5006 3791 c-3 -4 3 -16 14 -26 19 -18 20 -17 20 8 0 26 -22 38 -34
18z"/>
<path d="M5395 3790 c-7 -12 2 -30 16 -30 12 0 12 27 0 35 -5 3 -12 1 -16 -5z"/>
<path d="M5935 3790 c-3 -5 1 -10 9 -10 9 0 16 5 16 10 0 6 -4 10 -9 10 -6 0
-13 -4 -16 -10z"/>
<path d="M5507 3783 c-11 -10 -8 -20 8 -27 10 -4 15 1 15 14 0 20 -11 26 -23
13z"/>
<path d="M6103 3775 c-96 -30 -181 -103 -232 -201 -36 -68 -54 -179 -40 -238
12 -53 38 -105 64 -126 10 -9 8 3 -7 36 -18 38 -22 67 -22 134 0 79 3 91 42
172 69 142 181 218 323 218 27 0 49 5 49 10 0 14 -127 11 -177 -5z"/>
<path d="M4810 3774 c0 -14 21 -42 37 -48 16 -6 16 -6 0 12 -9 10 -17 24 -17
30 0 7 -4 12 -10 12 -5 0 -10 -3 -10 -6z"/>
<path d="M5166 3759 c-72 -57 21 -186 98 -135 30 19 40 48 32 92 -12 61 -79
83 -130 43z"/>
<path d="M5644 3770 c-77 -29 -55 -140 28 -140 35 0 78 40 78 73 0 43 -63 82
-106 67z m16 -40 c0 -5 -5 -10 -11 -10 -5 0 -7 5 -4 10 3 6 8 10 11 10 2 0 4
-4 4 -10z"/>
<path d="M6370 3775 c0 -6 56 -35 67 -35 4 0 -7 9 -25 20 -33 20 -42 24 -42
15z"/>
<path d="M6562 3758 c2 -17 9 -22 23 -20 26 5 29 8 22 27 -4 8 -16 15 -27 15
-16 0 -21 -5 -18 -22z"/>
<path d="M5816 3741 c-23 -43 -19 -52 5 -13 12 18 19 35 16 38 -3 3 -13 -8
-21 -25z"/>
<path d="M4735 3740 c10 -11 20 -20 23 -20 3 0 -3 9 -13 20 -10 11 -20 20 -23
20 -3 0 3 -9 13 -20z"/>
<path d="M3870 3713 c-42 -29 -89 -94 -90 -123 0 -8 13 8 30 36 16 29 44 64
62 78 37 29 36 35 -2 9z"/>
<path d="M4050 3717 c-105 -23 -199 -99 -244 -196 -16 -35 -21 -65 -21 -131 0
-73 4 -92 28 -138 37 -70 97 -128 166 -161 47 -22 70 -26 141 -26 71 0 94 5
140 26 69 32 125 88 159 159 22 47 26 68 26 145 0 75 -4 98 -24 135 -41 79
-88 127 -154 159 -74 36 -142 44 -217 28z m149 -57 c38 -11 101 -50 101 -64 0
-5 7 -14 16 -21 15 -11 15 -12 0 -12 -9 0 -16 4 -16 9 0 5 -5 6 -12 2 -8 -5
-9 -2 -5 10 5 13 3 17 -7 13 -8 -3 -29 2 -47 12 -53 27 -212 18 -239 -14 -7
-9 -8 -15 0 -20 5 -3 10 -15 10 -26 0 -10 5 -19 10 -19 6 0 10 -5 10 -11 0 -8
-6 -7 -17 2 -13 11 -17 11 -20 2 -3 -7 -11 -13 -18 -13 -7 0 -15 -7 -19 -15
-6 -16 -36 -21 -36 -5 0 5 6 13 13 17 8 4 16 16 20 25 4 11 12 15 22 12 17 -7
19 4 6 24 -6 10 -18 3 -45 -30 -55 -63 -69 -102 -62 -173 5 -56 4 -58 -9 -35
-19 33 -19 96 1 154 21 62 105 152 159 171 47 17 136 19 184 5z m-126 -76 c-6
-34 -5 -35 22 -28 23 6 26 4 23 -12 -2 -10 -16 -21 -35 -26 -35 -9 -73 -66
-73 -108 0 -28 -24 -21 -28 8 -2 14 -13 24 -28 28 -30 8 -23 18 14 19 21 0 34
11 60 50 21 32 31 58 27 71 -5 21 1 34 16 34 4 0 5 -16 2 -36z m60 6 c3 -13 0
-20 -8 -20 -17 0 -28 17 -20 30 10 16 22 12 28 -10z m68 -17 c-9 -16 -10 -14
-11 12 0 21 3 26 11 18 8 -8 8 -16 0 -30z m-167 11 c8 -22 7 -34 -3 -34 -5 0
-11 11 -13 25 -6 28 6 34 16 9z m156 -44 c0 -5 -8 -6 -17 -3 -15 6 -16 4 -5
-9 10 -13 9 -15 -13 -10 -25 4 -31 13 -18 25 10 11 53 8 53 -3z m-190 -45 c0
-8 -7 -15 -15 -15 -26 0 -18 20 13 29 1 1 2 -6 2 -14z m230 -7 c0 -4 -7 -8
-15 -8 -8 0 -15 4 -15 8 0 5 7 9 15 9 8 0 15 -4 15 -9z m-320 -43 c0 -9 10
-20 23 -26 24 -11 54 -49 39 -49 -5 0 -21 11 -35 24 -18 17 -29 20 -36 13 -16
-16 -24 -2 -17 28 7 27 26 35 26 10z m-6 -71 c11 -28 6 -39 -9 -20 -8 11 -15
23 -15 28 0 14 18 9 24 -8z"/>
<path d="M6162 3719 c-158 -30 -262 -161 -270 -340 -4 -76 -1 -91 22 -141 35
-74 115 -149 189 -176 163 -61 359 14 434 166 25 50 28 68 28 152 0 85 -3 101
-28 148 -77 146 -224 221 -375 191z m186 -75 c28 -14 63 -39 77 -56 27 -32 33
-52 13 -45 -7 2 -11 11 -10 18 2 8 0 11 -4 6 -4 -4 -18 3 -31 15 -13 12 -23
18 -23 14 0 -5 -6 -3 -14 4 -21 16 -115 40 -121 30 -3 -5 -1 -11 5 -15 5 -3
10 -14 9 -23 0 -14 -3 -13 -16 6 -22 31 -50 27 -90 -13 -33 -33 -53 -44 -53
-28 0 3 15 19 33 34 46 40 21 35 -35 -6 -61 -44 -70 -76 -33 -110 25 -24 45
-26 45 -3 0 5 -11 19 -25 30 -21 16 -23 23 -14 34 10 12 14 12 30 -2 11 -10
19 -23 19 -31 0 -8 5 -11 10 -8 6 3 10 14 10 24 0 26 21 43 37 30 10 -9 13 -6
13 15 0 31 15 34 32 6 8 -12 24 -20 39 -20 23 0 25 3 21 30 -3 18 0 30 7 30 7
0 10 -13 8 -35 -3 -20 0 -38 5 -41 4 -3 6 -10 3 -15 -4 -5 1 -9 9 -9 20 0 29
-17 15 -26 -7 -4 -9 -3 -6 3 4 6 -16 15 -49 21 -45 9 -61 9 -82 -2 -42 -22
-60 -48 -64 -91 l-3 -40 -14 28 c-8 16 -25 30 -40 33 -14 3 -33 9 -41 13 -21
11 -40 2 -40 -18 0 -9 -4 -21 -9 -26 -5 -6 -11 -19 -14 -30 -3 -11 -5 3 -6 31
-1 57 40 152 83 193 79 74 217 94 314 45z m-7 -77 c11 -14 13 -29 8 -42 -7
-17 -8 -18 -8 -2 -1 10 -8 20 -16 23 -15 6 -22 44 -7 44 4 0 14 -11 23 -23z
m54 -37 c3 -5 2 -10 -4 -10 -5 0 -13 5 -16 10 -3 6 -2 10 4 10 5 0 13 -4 16
-10z m-370 -120 c8 -27 -14 -59 -26 -37 -9 16 -1 57 11 57 5 0 12 -9 15 -20z
m42 -6 c-3 -3 -12 -4 -19 -1 -8 3 -5 6 6 6 11 1 17 -2 13 -5z m11 -35 c-10 -5
-18 -21 -18 -35 0 -14 -4 -22 -10 -19 -25 15 -2 65 30 65 12 -1 12 -2 -2 -11z
m22 -45 c0 -8 -5 -12 -10 -9 -6 4 -8 11 -5 16 9 14 15 11 15 -7z"/>
<path d="M6010 3483 c0 -12 8 -23 20 -26 11 -3 20 -2 20 2 0 5 -9 16 -20 26
-19 18 -20 17 -20 -2z"/>
<path d="M3586 3669 c-51 -40 -20 -129 46 -129 32 0 68 41 68 77 0 29 -41 73
-68 73 -11 0 -31 -9 -46 -21z m61 -4 c3 -9 3 -19 -1 -22 -8 -9 -37 18 -30 28
8 14 24 11 31 -6z"/>
<path d="M3460 3679 c0 -4 7 -20 15 -35 8 -16 15 -22 15 -13 0 14 -29 61 -30
48z"/>
<path d="M5389 3660 c-20 -12 -32 -54 -24 -81 14 -45 109 -63 142 -27 14 16
13 21 -8 65 -21 42 -28 48 -59 50 -19 2 -42 -2 -51 -7z m111 -100 c-6 -11 -13
-20 -16 -20 -2 0 0 9 6 20 6 11 13 20 16 20 2 0 0 -9 -6 -20z"/>
<path d="M6620 3663 c-56 -21 -68 -87 -24 -122 34 -27 68 -27 94 1 27 30 26
73 -5 103 -24 25 -37 28 -65 18z"/>
<path d="M5813 3545 c-3 -9 -3 -18 -1 -21 3 -3 8 4 11 16 6 23 -1 27 -10 5z"/>
<path d="M4540 3526 c0 -23 22 -41 34 -29 3 4 6 17 6 30 0 16 -6 23 -20 23
-14 0 -20 -7 -20 -24z"/>
<path d="M5602 3493 c-7 -3 -19 -18 -28 -35 -27 -53 14 -108 79 -108 30 0 44
11 55 40 22 60 -46 127 -106 103z"/>
<path d="M5801 3484 c0 -11 3 -14 6 -6 3 7 2 16 -1 19 -3 4 -6 -2 -5 -13z"/>
<path d="M3603 3444 c-3 -8 -1 -20 5 -26 16 -16 42 -2 42 22 0 24 -38 28 -47
4z"/>
<path d="M6710 3435 c-28 -34 23 -64 55 -34 12 12 -6 43 -27 47 -8 2 -21 -4
-28 -13z"/>
<path d="M3720 3410 c-2 -19 -2 -48 -1 -65 2 -32 31 -108 38 -101 3 2 -1 15
-8 28 -7 12 -16 57 -19 98 -4 46 -8 61 -10 40z"/>
<path d="M6638 3330 c-3 -41 -9 -84 -12 -95 -4 -11 2 -4 13 15 21 36 26 99 12
135 -6 14 -10 -4 -13 -55z"/>
<path d="M6582 3285 c-6 -132 -113 -237 -306 -299 -14 -5 -16 -10 -8 -18 8 -8
28 -4 78 17 172 73 252 173 241 303 l-3 47 -2 -50z"/>
<path d="M4461 3236 c-6 -25 -10 -71 -10 -103 l2 -58 7 71 c4 39 11 85 15 102
10 49 -1 38 -14 -12z"/>
<path d="M3785 3190 c10 -11 20 -20 23 -20 3 0 -3 9 -13 20 -10 11 -20 20 -23
20 -3 0 3 -9 13 -20z"/>
<path d="M5857 3159 c10 -17 24 -36 32 -42 8 -7 2 7 -14 31 -32 49 -45 57 -18
11z"/>
<path d="M5910 3101 c0 -6 4 -13 10 -16 6 -3 7 1 4 9 -7 18 -14 21 -14 7z"/>
<path d="M5575 3084 c22 -54 11 -233 -16 -250 -16 -9 -31 -44 -19 -44 5 0 10
7 10 15 0 8 5 15 10 15 20 0 50 84 50 140 0 62 -15 126 -32 136 -8 5 -9 1 -3
-12z"/>
<path d="M4252 3050 c-50 -47 -11 -127 55 -117 19 3 41 11 49 18 22 18 17 67
-11 94 -29 30 -64 32 -93 5z m48 -25 c0 -8 -2 -15 -4 -15 -2 0 -6 7 -10 15 -3
8 -1 15 4 15 6 0 10 -7 10 -15z"/>
<path d="M6028 2994 c-11 -10 3 -34 19 -34 8 0 13 7 11 17 -3 18 -20 27 -30
17z"/>
<path d="M4094 2960 c26 -17 50 -30 52 -27 6 6 -49 44 -76 51 -15 4 -6 -5 24
-24z"/>
<path d="M4470 2970 c0 -21 55 -136 71 -146 7 -4 2 9 -10 30 -13 20 -32 58
-42 84 -10 26 -18 40 -19 32z"/>
<path d="M5880 2930 c-28 -28 -25 -57 9 -91 35 -34 49 -36 85 -8 30 24 34 63
10 97 -20 29 -76 30 -104 2z"/>
<path d="M4335 2871 c-8 -15 3 -31 21 -31 9 0 14 7 12 17 -4 20 -24 28 -33 14z"/>
<path d="M4550 2806 c0 -2 8 -10 18 -17 15 -13 16 -12 3 4 -13 16 -21 21 -21
13z"/>
<path d="M5923 2779 c-31 -9 -50 -25 -40 -35 2 -3 33 6 68 20 51 20 58 25 34
24 -16 0 -44 -4 -62 -9z"/>
<path d="M7210 3639 c-6 -11 -10 -25 -8 -30 2 -5 8 4 15 21 13 34 9 40 -7 9z"/>
<path d="M3159 3433 c11 -23 26 -45 33 -49 6 -4 1 10 -12 32 -33 56 -46 66
-21 17z"/>
<path d="M7084 3360 c-34 -65 -32 -80 3 -27 19 29 41 87 32 87 -2 0 -18 -27
-35 -60z"/>
<path d="M3255 3287 c10 -15 20 -25 23 -22 3 3 -5 16 -17 28 l-23 22 17 -28z"/>
<path d="M7030 3210 c0 -6 7 -10 15 -10 8 0 15 2 15 4 0 2 -7 6 -15 10 -8 3
-15 1 -15 -4z"/>
<path d="M3330 3182 c0 -5 12 -19 27 -33 l27 -24 -23 33 c-23 32 -31 39 -31
24z"/>
<path d="M6996 3154 c-10 -14 -16 -28 -13 -30 2 -3 12 7 21 22 10 14 16 28 13
30 -2 3 -12 -7 -21 -22z"/>
<path d="M3410 3104 c0 -5 14 -23 30 -39 26 -24 30 -26 30 -10 0 10 -3 15 -6
12 -4 -4 -18 6 -30 21 -13 15 -24 22 -24 16z"/>
<path d="M3495 3019 c22 -29 117 -111 135 -117 15 -5 -113 118 -138 132 -11 6
-10 3 3 -15z"/>
<path d="M6865 3000 c-3 -5 -1 -10 4 -10 6 0 11 5 11 10 0 6 -2 10 -4 10 -3 0
-8 -4 -11 -10z"/>
<path d="M4042 2594 c10 -10 20 -15 24 -12 3 4 -5 12 -18 18 -22 12 -22 12 -6
-6z"/>
<path d="M6340 2589 c0 -5 5 -7 10 -4 6 3 10 8 10 11 0 2 -4 4 -10 4 -5 0 -10
-5 -10 -11z"/>
<path d="M4140 2543 c8 -2 29 -11 47 -19 45 -20 54 -16 13 6 -19 11 -44 19
-55 19 -14 0 -15 -2 -5 -6z"/>
<path d="M4340 2462 c0 -4 14 -13 30 -19 17 -6 30 -8 30 -3 0 4 -13 13 -30 19
-16 5 -30 7 -30 3z"/>
<path d="M4908 2333 c6 -2 18 -2 25 0 6 3 1 5 -13 5 -14 0 -19 -2 -12 -5z"/>
<path d="M3285 3040 c10 -11 20 -20 23 -20 3 0 -3 9 -13 20 -10 11 -20 20 -23
20 -3 0 3 -9 13 -20z"/>
<path d="M8095 7640 c10 -11 20 -20 23 -20 3 0 -3 9 -13 20 -10 11 -20 20 -23
20 -3 0 3 -9 13 -20z"/>
<path d="M8566 7017 c3 -10 9 -15 12 -12 3 3 0 11 -7 18 -10 9 -11 8 -5 -6z"/>
<path d="M8606 6947 c3 -10 9 -15 12 -12 3 3 0 11 -7 18 -10 9 -11 8 -5 -6z"/>
<path d="M8786 6587 c3 -10 9 -15 12 -12 3 3 0 11 -7 18 -10 9 -11 8 -5 -6z"/>
<path d="M8951 6154 c0 -11 3 -14 6 -6 3 7 2 16 -1 19 -3 4 -6 -2 -5 -13z"/>
<path d="M9026 5885 c8 -37 14 -45 14 -19 0 10 -5 26 -10 34 -8 11 -9 7 -4
-15z"/>
<path d="M9051 5774 c0 -11 3 -14 6 -6 3 7 2 16 -1 19 -3 4 -6 -2 -5 -13z"/>
<path d="M9067 5685 c7 -49 13 -58 13 -19 0 16 -5 36 -10 44 -6 10 -7 2 -3
-25z"/>
<path d="M9086 5555 c4 -33 8 -62 10 -64 9 -10 3 96 -6 109 -7 10 -8 -4 -4
-45z"/>
<path d="M9107 5380 c3 -58 7 -107 9 -109 7 -8 2 154 -6 184 -5 17 -6 -16 -3
-75z"/>
<path d="M9124 5050 c0 -58 1 -81 3 -52 2 28 2 76 0 105 -2 28 -3 5 -3 -53z"/>
<path d="M9106 4723 c-10 -127 -50 -382 -81 -511 -14 -57 -25 -108 -25 -114 0
-22 13 2 21 39 4 21 13 58 19 83 19 76 40 189 60 325 13 82 25 275 18 275 -3
0 -8 -44 -12 -97z"/>
<path d="M1301 4514 c0 -11 3 -14 6 -6 3 7 2 16 -1 19 -3 4 -6 -2 -5 -13z"/>
<path d="M8987 4056 c-5 -15 -6 -31 -3 -34 8 -8 18 25 14 45 -3 13 -6 10 -11
-11z"/>
<path d="M8921 3846 c-29 -88 -55 -167 -58 -175 -3 -8 -1 -11 4 -8 5 3 16 25
23 49 7 24 17 47 22 53 4 5 8 19 8 31 0 13 5 26 10 29 6 3 10 15 10 26 0 10 4
27 9 37 14 27 34 99 30 109 -2 6 -28 -62 -58 -151z"/>
<path d="M8806 3537 c-58 -135 -170 -352 -239 -462 -27 -44 -40 -71 -28 -61
11 11 21 23 21 28 0 5 14 29 30 53 17 25 47 75 67 112 75 140 143 276 143 284
0 8 25 69 53 126 6 13 8 25 5 28 -2 3 -26 -46 -52 -108z"/>
<path d="M8475 2933 c-21 -32 -64 -93 -96 -135 -32 -43 -55 -78 -51 -78 4 0
19 17 34 38 15 20 50 69 79 107 48 67 84 125 76 125 -2 0 -21 -26 -42 -57z"/>
<path d="M8249 2803 c-13 -16 -12 -17 4 -4 9 7 17 15 17 17 0 8 -8 3 -21 -13z"/>
<path d="M8219 2763 c-13 -16 -12 -17 4 -4 16 13 21 21 13 21 -2 0 -10 -8 -17
-17z"/>
<path d="M8099 2624 c-113 -128 -147 -174 -63 -84 66 70 167 190 161 190 -3 0
-47 -48 -98 -106z"/>
<path d="M8225 2603 c-50 -59 -146 -166 -215 -238 -69 -71 -100 -107 -70 -80
90 82 273 276 310 329 8 12 23 30 33 41 18 19 41 55 35 55 -2 0 -44 -48 -93
-107z"/>
<path d="M2140 2616 c0 -2 8 -10 18 -17 15 -13 16 -12 3 4 -13 16 -21 21 -21
13z"/>
<path d="M7849 2358 c-64 -62 -88 -88 -55 -57 109 99 181 169 176 169 -3 0
-58 -51 -121 -112z"/>
<path d="M2310 2425 c19 -19 36 -35 39 -35 3 0 -10 16 -29 35 -19 19 -36 35
-39 35 -3 0 10 -16 29 -35z"/>
<path d="M2450 2287 c0 -2 15 -16 33 -33 l32 -29 -29 33 c-28 30 -36 37 -36
29z"/>
<path d="M7655 2184 c-56 -52 -57 -53 -9 -15 47 37 82 71 73 71 -2 0 -31 -26
-64 -56z"/>
<path d="M7806 2173 c-296 -275 -774 -567 -1185 -724 -62 -24 -108 -45 -101
-47 6 -2 23 1 36 7 13 6 34 15 47 20 12 5 43 18 69 30 26 12 52 21 57 21 5 0
26 9 48 19 21 11 79 38 128 61 50 22 99 46 110 52 11 6 38 21 60 32 22 12 42
23 45 26 10 10 65 41 83 47 9 3 17 9 17 14 0 5 5 9 11 9 6 0 29 13 52 28 23
15 54 34 70 41 15 8 27 18 27 23 0 4 6 8 13 8 6 0 23 9 37 20 14 11 75 57 135
101 61 45 112 84 115 88 3 3 21 18 40 33 46 34 164 148 159 152 -2 2 -35 -25
-73 -61z"/>
<path d="M2560 2186 c0 -2 8 -10 18 -17 15 -13 16 -12 3 4 -13 16 -21 21 -21
13z"/>
<path d="M2655 2100 c10 -11 20 -20 23 -20 3 0 -3 9 -13 20 -10 11 -20 20 -23
20 -3 0 3 -9 13 -20z"/>
<path d="M7559 2103 c-13 -16 -12 -17 4 -4 16 13 21 21 13 21 -2 0 -10 -8 -17
-17z"/>
<path d="M2705 2060 c10 -11 20 -20 23 -20 3 0 -3 9 -13 20 -10 11 -20 20 -23
20 -3 0 3 -9 13 -20z"/>
<path d="M7414 2004 c-38 -26 -78 -56 -89 -66 -20 -20 -20 -20 10 -2 46 28
155 105 155 110 0 8 -9 3 -76 -42z"/>
<path d="M2755 2020 c10 -11 20 -20 23 -20 3 0 -3 9 -13 20 -10 11 -20 20 -23
20 -3 0 3 -9 13 -20z"/>
<path d="M3287 1669 c7 -7 15 -10 18 -7 3 3 -2 9 -12 12 -14 6 -15 5 -6 -5z"/>
<path d="M3397 1609 c7 -7 15 -10 18 -7 3 3 -2 9 -12 12 -14 6 -15 5 -6 -5z"/>
<path d="M3487 1569 c7 -7 15 -10 18 -7 3 3 -2 9 -12 12 -14 6 -15 5 -6 -5z"/>
<path d="M3527 1549 c7 -7 15 -10 18 -7 3 3 -2 9 -12 12 -14 6 -15 5 -6 -5z"/>
<path d="M3560 1535 c0 -8 73 -36 78 -30 3 3 3 5 0 5 -3 0 -22 7 -42 15 -20 8
-36 13 -36 10z"/>
<path d="M3717 1469 c7 -7 15 -10 18 -7 3 3 -2 9 -12 12 -14 6 -15 5 -6 -5z"/>
<path d="M3767 1449 c7 -7 15 -10 18 -7 3 3 -2 9 -12 12 -14 6 -15 5 -6 -5z"/>
<path d="M3805 1430 c3 -5 14 -10 23 -10 15 0 15 2 2 10 -20 13 -33 13 -25 0z"/>
<path d="M3855 1410 c3 -5 16 -10 28 -9 21 0 21 1 2 9 -28 12 -37 12 -30 0z"/>
<path d="M3915 1390 c3 -5 16 -10 28 -9 21 0 21 1 2 9 -28 12 -37 12 -30 0z"/>
<path d="M6465 1390 c-19 -8 -19 -9 2 -9 12 -1 25 4 28 9 7 12 -2 12 -30 0z"/>
<path d="M3975 1370 c3 -5 16 -10 28 -9 21 0 21 1 2 9 -28 12 -37 12 -30 0z"/>
<path d="M6405 1370 c-19 -8 -19 -9 2 -9 12 -1 25 4 28 9 7 12 -2 12 -30 0z"/>
<path d="M4048 1348 c5 -5 16 -8 23 -6 8 3 3 7 -10 11 -17 4 -21 3 -13 -5z"/>
<path d="M6345 1350 c-19 -8 -19 -9 2 -9 12 -1 25 4 28 9 7 12 -2 12 -30 0z"/>
<path d="M4118 1328 c6 -6 18 -8 28 -6 14 3 12 5 -9 10 -19 3 -25 2 -19 -4z"/>
<path d="M6275 1330 c-18 -8 -17 -9 7 -9 15 -1 30 4 33 9 7 12 -12 12 -40 0z"/>
<path d="M6160 1300 c-59 -16 -61 -18 -28 -19 20 -1 40 4 43 9 3 6 16 10 28
10 12 0 29 5 37 10 23 15 -2 12 -80 -10z"/>
<path d="M4208 1303 c7 -3 16 -2 19 1 4 3 -2 6 -13 5 -11 0 -14 -3 -6 -6z"/>
<path d="M4260 1290 c8 -5 26 -9 40 -9 l25 1 -25 8 c-14 4 -32 8 -40 9 -13 1
-13 0 0 -9z"/>
<path d="M4360 1270 c8 -5 26 -10 39 -10 32 0 24 6 -19 14 -25 4 -31 3 -20 -4z"/>
<path d="M5930 1254 c-69 -14 -170 -31 -225 -39 l-100 -14 80 4 c44 2 107 9
140 15 33 6 85 15 115 20 79 12 140 26 147 34 10 10 -23 5 -157 -20z"/>
<path d="M4440 1250 c8 -5 33 -9 55 -9 39 1 39 2 10 9 -16 4 -41 8 -55 9 -20
0 -22 -1 -10 -9z"/>
<path d="M4553 1234 c10 -11 97 -24 187 -29 l75 -4 -90 13 c-49 7 -110 16
-135 21 -25 4 -42 4 -37 -1z"/>
<path d="M4860 1188 c45 -13 653 -13 700 0 24 7 -8 8 -105 3 -179 -8 -325 -8
-495 1 -98 5 -125 4 -100 -4z"/>
</g>
</svg>
